<svg width="1112" height="370" viewBox="0 0 1112 370" fill="none" xmlns="http://www.w3.org/2000/svg">
<path d="M6 185C6 286.068 87.7827 368 188.667 368C289.551 368 371.333 286.068 371.333 185C371.333 83.9319 453.116 2 554 2C654.884 2 736.667 83.9319 736.667 185C736.667 286.068 818.449 368 919.333 368C1020.22 368 1102 286.068 1102 185" stroke="url(#paint0_linear)" stroke-width="3"/>
<path d="M737 185C737 187.008 736.968 189.008 736.904 191C733.737 289.291 653.06 368 554 368C452.932 368 371 286.068 371 185" stroke="#BDBCBC" stroke-width="3" stroke-miterlimit="16" stroke-dasharray="10 10"/>
<circle cx="6" cy="185" r="6" fill="white"/>
<circle cx="371" cy="185" r="6" fill="white"/>
<circle cx="737" cy="185" r="6" fill="white"/>
<circle cx="1102" cy="185" r="10" fill="white"/>
<path opacity="0.5" d="M883.935 205.7V208.54H888.515V211.18H883.935V214.26H889.115V217H880.515V202.96H889.115V205.7H883.935ZM898.136 205.72C899.442 205.72 900.482 206.147 901.256 207C902.042 207.84 902.436 209 902.436 210.48V217H899.036V210.94C899.036 210.193 898.842 209.613 898.456 209.2C898.069 208.787 897.549 208.58 896.896 208.58C896.242 208.58 895.722 208.787 895.336 209.2C894.949 209.613 894.756 210.193 894.756 210.94V217H891.336V205.84H894.756V207.32C895.102 206.827 895.569 206.44 896.156 206.16C896.742 205.867 897.402 205.72 898.136 205.72ZM911.032 214.1V217H909.292C908.052 217 907.086 216.7 906.392 216.1C905.699 215.487 905.352 214.493 905.352 213.12V208.68H903.992V205.84H905.352V203.12H908.772V205.84H911.012V208.68H908.772V213.16C908.772 213.493 908.852 213.733 909.012 213.88C909.172 214.027 909.439 214.1 909.812 214.1H911.032ZM916.357 207.7C916.757 207.087 917.257 206.607 917.857 206.26C918.457 205.9 919.124 205.72 919.857 205.72V209.34H918.917C918.064 209.34 917.424 209.527 916.997 209.9C916.571 210.26 916.357 210.9 916.357 211.82V217H912.937V205.84H916.357V207.7ZM932.012 211.24C932.012 211.56 931.992 211.893 931.952 212.24H924.212C924.265 212.933 924.485 213.467 924.872 213.84C925.272 214.2 925.759 214.38 926.332 214.38C927.185 214.38 927.779 214.02 928.112 213.3H931.752C931.565 214.033 931.225 214.693 930.732 215.28C930.252 215.867 929.645 216.327 928.912 216.66C928.179 216.993 927.359 217.16 926.452 217.16C925.359 217.16 924.385 216.927 923.532 216.46C922.679 215.993 922.012 215.327 921.532 214.46C921.052 213.593 920.812 212.58 920.812 211.42C920.812 210.26 921.045 209.247 921.512 208.38C921.992 207.513 922.659 206.847 923.512 206.38C924.365 205.913 925.345 205.68 926.452 205.68C927.532 205.68 928.492 205.907 929.332 206.36C930.172 206.813 930.825 207.46 931.292 208.3C931.772 209.14 932.012 210.12 932.012 211.24ZM928.512 210.34C928.512 209.753 928.312 209.287 927.912 208.94C927.512 208.593 927.012 208.42 926.412 208.42C925.839 208.42 925.352 208.587 924.952 208.92C924.565 209.253 924.325 209.727 924.232 210.34H928.512ZM938.056 205.68C938.843 205.68 939.53 205.84 940.116 206.16C940.716 206.48 941.176 206.9 941.496 207.42V205.84H944.916V216.98C944.916 218.007 944.71 218.933 944.296 219.76C943.896 220.6 943.276 221.267 942.436 221.76C941.61 222.253 940.576 222.5 939.336 222.5C937.683 222.5 936.343 222.107 935.316 221.32C934.29 220.547 933.703 219.493 933.556 218.16H936.936C937.043 218.587 937.296 218.92 937.696 219.16C938.096 219.413 938.59 219.54 939.176 219.54C939.883 219.54 940.443 219.333 940.856 218.92C941.283 218.52 941.496 217.873 941.496 216.98V215.4C941.163 215.92 940.703 216.347 940.116 216.68C939.53 217 938.843 217.16 938.056 217.16C937.136 217.16 936.303 216.927 935.556 216.46C934.81 215.98 934.216 215.307 933.776 214.44C933.35 213.56 933.136 212.547 933.136 211.4C933.136 210.253 933.35 209.247 933.776 208.38C934.216 207.513 934.81 206.847 935.556 206.38C936.303 205.913 937.136 205.68 938.056 205.68ZM941.496 211.42C941.496 210.567 941.256 209.893 940.776 209.4C940.31 208.907 939.736 208.66 939.056 208.66C938.376 208.66 937.796 208.907 937.316 209.4C936.85 209.88 936.616 210.547 936.616 211.4C936.616 212.253 936.85 212.933 937.316 213.44C937.796 213.933 938.376 214.18 939.056 214.18C939.736 214.18 940.31 213.933 940.776 213.44C941.256 212.947 941.496 212.273 941.496 211.42ZM946.71 211.4C946.71 210.253 946.924 209.247 947.35 208.38C947.79 207.513 948.384 206.847 949.13 206.38C949.877 205.913 950.71 205.68 951.63 205.68C952.417 205.68 953.104 205.84 953.69 206.16C954.29 206.48 954.75 206.9 955.07 207.42V205.84H958.49V217H955.07V215.42C954.737 215.94 954.27 216.36 953.67 216.68C953.084 217 952.397 217.16 951.61 217.16C950.704 217.16 949.877 216.927 949.13 216.46C948.384 215.98 947.79 215.307 947.35 214.44C946.924 213.56 946.71 212.547 946.71 211.4ZM955.07 211.42C955.07 210.567 954.83 209.893 954.35 209.4C953.884 208.907 953.31 208.66 952.63 208.66C951.95 208.66 951.37 208.907 950.89 209.4C950.424 209.88 950.19 210.547 950.19 211.4C950.19 212.253 950.424 212.933 950.89 213.44C951.37 213.933 951.95 214.18 952.63 214.18C953.31 214.18 953.884 213.933 954.35 213.44C954.83 212.947 955.07 212.273 955.07 211.42Z" fill="white"/>
<path d="M504.316 214.36H508.796V217H500.896V202.96H504.316V214.36ZM515.508 217.16C514.414 217.16 513.428 216.927 512.548 216.46C511.681 215.993 510.994 215.327 510.488 214.46C509.994 213.593 509.748 212.58 509.748 211.42C509.748 210.273 510.001 209.267 510.507 208.4C511.014 207.52 511.708 206.847 512.588 206.38C513.468 205.913 514.454 205.68 515.548 205.68C516.641 205.68 517.628 205.913 518.508 206.38C519.388 206.847 520.081 207.52 520.588 208.4C521.094 209.267 521.348 210.273 521.348 211.42C521.348 212.567 521.088 213.58 520.568 214.46C520.061 215.327 519.361 215.993 518.468 216.46C517.588 216.927 516.601 217.16 515.508 217.16ZM515.508 214.2C516.161 214.2 516.714 213.96 517.168 213.48C517.634 213 517.868 212.313 517.868 211.42C517.868 210.527 517.641 209.84 517.188 209.36C516.748 208.88 516.201 208.64 515.548 208.64C514.881 208.64 514.328 208.88 513.888 209.36C513.448 209.827 513.228 210.513 513.228 211.42C513.228 212.313 513.441 213 513.868 213.48C514.308 213.96 514.854 214.2 515.508 214.2ZM527.402 205.68C528.189 205.68 528.875 205.84 529.462 206.16C530.062 206.48 530.522 206.9 530.842 207.42V205.84H534.262V216.98C534.262 218.007 534.055 218.933 533.642 219.76C533.242 220.6 532.622 221.267 531.782 221.76C530.955 222.253 529.922 222.5 528.682 222.5C527.029 222.5 525.689 222.107 524.662 221.32C523.635 220.547 523.049 219.493 522.902 218.16H526.282C526.389 218.587 526.642 218.92 527.042 219.16C527.442 219.413 527.935 219.54 528.522 219.54C529.229 219.54 529.789 219.333 530.202 218.92C530.629 218.52 530.842 217.873 530.842 216.98V215.4C530.509 215.92 530.049 216.347 529.462 216.68C528.875 217 528.189 217.16 527.402 217.16C526.482 217.16 525.649 216.927 524.902 216.46C524.155 215.98 523.562 215.307 523.122 214.44C522.695 213.56 522.482 212.547 522.482 211.4C522.482 210.253 522.695 209.247 523.122 208.38C523.562 207.513 524.155 206.847 524.902 206.38C525.649 205.913 526.482 205.68 527.402 205.68ZM530.842 211.42C530.842 210.567 530.602 209.893 530.122 209.4C529.655 208.907 529.082 208.66 528.402 208.66C527.722 208.66 527.142 208.907 526.662 209.4C526.195 209.88 525.962 210.547 525.962 211.4C525.962 212.253 526.195 212.933 526.662 213.44C527.142 213.933 527.722 214.18 528.402 214.18C529.082 214.18 529.655 213.933 530.122 213.44C530.602 212.947 530.842 212.273 530.842 211.42ZM540.416 205.84V217H536.996V205.84H540.416ZM541.036 203.06L536.216 205.08V202.72L541.036 200.4V203.06ZM547.702 217.16C546.729 217.16 545.862 216.993 545.102 216.66C544.342 216.327 543.742 215.873 543.302 215.3C542.862 214.713 542.615 214.06 542.562 213.34H545.942C545.982 213.727 546.162 214.04 546.482 214.28C546.802 214.52 547.195 214.64 547.662 214.64C548.089 214.64 548.415 214.56 548.642 214.4C548.882 214.227 549.002 214.007 549.002 213.74C549.002 213.42 548.835 213.187 548.502 213.04C548.169 212.88 547.629 212.707 546.882 212.52C546.082 212.333 545.415 212.14 544.882 211.94C544.349 211.727 543.889 211.4 543.502 210.96C543.115 210.507 542.922 209.9 542.922 209.14C542.922 208.5 543.095 207.92 543.442 207.4C543.802 206.867 544.322 206.447 545.002 206.14C545.695 205.833 546.515 205.68 547.462 205.68C548.862 205.68 549.962 206.027 550.762 206.72C551.575 207.413 552.042 208.333 552.162 209.48H549.002C548.949 209.093 548.775 208.787 548.482 208.56C548.202 208.333 547.829 208.22 547.362 208.22C546.962 208.22 546.655 208.3 546.442 208.46C546.229 208.607 546.122 208.813 546.122 209.08C546.122 209.4 546.289 209.64 546.622 209.8C546.969 209.96 547.502 210.12 548.222 210.28C549.049 210.493 549.722 210.707 550.242 210.92C550.762 211.12 551.215 211.453 551.602 211.92C552.002 212.373 552.209 212.987 552.222 213.76C552.222 214.413 552.035 215 551.662 215.52C551.302 216.027 550.775 216.427 550.082 216.72C549.402 217.013 548.609 217.16 547.702 217.16ZM560.534 214.1V217H558.794C557.554 217 556.588 216.7 555.894 216.1C555.201 215.487 554.854 214.493 554.854 213.12V208.68H553.494V205.84H554.854V203.12H558.274V205.84H560.514V208.68H558.274V213.16C558.274 213.493 558.354 213.733 558.514 213.88C558.674 214.027 558.941 214.1 559.314 214.1H560.534ZM564.159 204.68C563.559 204.68 563.066 204.507 562.679 204.16C562.306 203.8 562.119 203.36 562.119 202.84C562.119 202.307 562.306 201.867 562.679 201.52C563.066 201.16 563.559 200.98 564.159 200.98C564.746 200.98 565.226 201.16 565.599 201.52C565.986 201.867 566.179 202.307 566.179 202.84C566.179 203.36 565.986 203.8 565.599 204.16C565.226 204.507 564.746 204.68 564.159 204.68ZM565.859 205.84V217H562.439V205.84H565.859ZM567.658 211.42C567.658 210.26 567.891 209.247 568.358 208.38C568.838 207.513 569.498 206.847 570.338 206.38C571.191 205.913 572.164 205.68 573.258 205.68C574.658 205.68 575.824 206.047 576.758 206.78C577.704 207.513 578.324 208.547 578.618 209.88H574.978C574.671 209.027 574.078 208.6 573.198 208.6C572.571 208.6 572.071 208.847 571.698 209.34C571.324 209.82 571.138 210.513 571.138 211.42C571.138 212.327 571.324 213.027 571.698 213.52C572.071 214 572.571 214.24 573.198 214.24C574.078 214.24 574.671 213.813 574.978 212.96H578.618C578.324 214.267 577.704 215.293 576.758 216.04C575.811 216.787 574.644 217.16 573.258 217.16C572.164 217.16 571.191 216.927 570.338 216.46C569.498 215.993 568.838 215.327 568.358 214.46C567.891 213.593 567.658 212.58 567.658 211.42ZM579.767 211.4C579.767 210.253 579.98 209.247 580.407 208.38C580.847 207.513 581.44 206.847 582.187 206.38C582.934 205.913 583.767 205.68 584.687 205.68C585.474 205.68 586.16 205.84 586.747 206.16C587.347 206.48 587.807 206.9 588.127 207.42V205.84H591.547V217H588.127V215.42C587.794 215.94 587.327 216.36 586.727 216.68C586.14 217 585.454 217.16 584.667 217.16C583.76 217.16 582.934 216.927 582.187 216.46C581.44 215.98 580.847 215.307 580.407 214.44C579.98 213.56 579.767 212.547 579.767 211.4ZM588.127 211.42C588.127 210.567 587.887 209.893 587.407 209.4C586.94 208.907 586.367 208.66 585.687 208.66C585.007 208.66 584.427 208.907 583.947 209.4C583.48 209.88 583.247 210.547 583.247 211.4C583.247 212.253 583.48 212.933 583.947 213.44C584.427 213.933 585.007 214.18 585.687 214.18C586.367 214.18 586.94 213.933 587.407 213.44C587.887 212.947 588.127 212.273 588.127 211.42ZM608.78 211.24C608.78 211.56 608.76 211.893 608.72 212.24H600.98C601.033 212.933 601.253 213.467 601.64 213.84C602.04 214.2 602.526 214.38 603.1 214.38C603.953 214.38 604.546 214.02 604.88 213.3H608.52C608.333 214.033 607.993 214.693 607.5 215.28C607.02 215.867 606.413 216.327 605.68 216.66C604.946 216.993 604.126 217.16 603.22 217.16C602.126 217.16 601.153 216.927 600.3 216.46C599.446 215.993 598.78 215.327 598.3 214.46C597.82 213.593 597.58 212.58 597.58 211.42C597.58 210.26 597.813 209.247 598.28 208.38C598.76 207.513 599.426 206.847 600.28 206.38C601.133 205.913 602.113 205.68 603.22 205.68C604.3 205.68 605.26 205.907 606.1 206.36C606.94 206.813 607.593 207.46 608.06 208.3C608.54 209.14 608.78 210.12 608.78 211.24ZM605.28 210.34C605.28 209.753 605.08 209.287 604.68 208.94C604.28 208.593 603.78 208.42 603.18 208.42C602.606 208.42 602.12 208.587 601.72 208.92C601.333 209.253 601.093 209.727 601 210.34H605.28ZM506.862 244.1V247H505.122C503.882 247 502.916 246.7 502.222 246.1C501.529 245.487 501.182 244.493 501.182 243.12V238.68H499.822V235.84H501.182V233.12H504.602V235.84H506.842V238.68H504.602V243.16C504.602 243.493 504.682 243.733 504.842 243.88C505.002 244.027 505.269 244.1 505.642 244.1H506.862ZM512.187 237.7C512.587 237.087 513.087 236.607 513.687 236.26C514.287 235.9 514.954 235.72 515.687 235.72V239.34H514.747C513.894 239.34 513.254 239.527 512.827 239.9C512.401 240.26 512.187 240.9 512.187 241.82V247H508.767V235.84H512.187V237.7ZM516.642 241.4C516.642 240.253 516.855 239.247 517.282 238.38C517.722 237.513 518.315 236.847 519.062 236.38C519.809 235.913 520.642 235.68 521.562 235.68C522.349 235.68 523.035 235.84 523.622 236.16C524.222 236.48 524.682 236.9 525.002 237.42V235.84H528.422V247H525.002V245.42C524.669 245.94 524.202 246.36 523.602 246.68C523.015 247 522.329 247.16 521.542 247.16C520.635 247.16 519.809 246.927 519.062 246.46C518.315 245.98 517.722 245.307 517.282 244.44C516.855 243.56 516.642 242.547 516.642 241.4ZM525.002 241.42C525.002 240.567 524.762 239.893 524.282 239.4C523.815 238.907 523.242 238.66 522.562 238.66C521.882 238.66 521.302 238.907 520.822 239.4C520.355 239.88 520.122 240.547 520.122 241.4C520.122 242.253 520.355 242.933 520.822 243.44C521.302 243.933 521.882 244.18 522.562 244.18C523.242 244.18 523.815 243.933 524.282 243.44C524.762 242.947 525.002 242.273 525.002 241.42ZM537.696 235.72C539.003 235.72 540.043 236.147 540.816 237C541.603 237.84 541.996 239 541.996 240.48V247H538.596V240.94C538.596 240.193 538.403 239.613 538.016 239.2C537.63 238.787 537.11 238.58 536.456 238.58C535.803 238.58 535.283 238.787 534.896 239.2C534.51 239.613 534.316 240.193 534.316 240.94V247H530.896V235.84H534.316V237.32C534.663 236.827 535.13 236.44 535.716 236.16C536.303 235.867 536.963 235.72 537.696 235.72ZM548.913 247.16C547.939 247.16 547.073 246.993 546.313 246.66C545.553 246.327 544.953 245.873 544.513 245.3C544.073 244.713 543.826 244.06 543.773 243.34H547.153C547.193 243.727 547.373 244.04 547.693 244.28C548.013 244.52 548.406 244.64 548.873 244.64C549.299 244.64 549.626 244.56 549.853 244.4C550.093 244.227 550.213 244.007 550.213 243.74C550.213 243.42 550.046 243.187 549.713 243.04C549.379 242.88 548.839 242.707 548.093 242.52C547.293 242.333 546.626 242.14 546.093 241.94C545.559 241.727 545.099 241.4 544.713 240.96C544.326 240.507 544.133 239.9 544.133 239.14C544.133 238.5 544.306 237.92 544.653 237.4C545.013 236.867 545.533 236.447 546.213 236.14C546.906 235.833 547.726 235.68 548.673 235.68C550.073 235.68 551.173 236.027 551.973 236.72C552.786 237.413 553.253 238.333 553.373 239.48H550.213C550.159 239.093 549.986 238.787 549.693 238.56C549.413 238.333 549.039 238.22 548.573 238.22C548.173 238.22 547.866 238.3 547.653 238.46C547.439 238.607 547.333 238.813 547.333 239.08C547.333 239.4 547.499 239.64 547.833 239.8C548.179 239.96 548.713 240.12 549.433 240.28C550.259 240.493 550.933 240.707 551.453 240.92C551.973 241.12 552.426 241.453 552.813 241.92C553.213 242.373 553.419 242.987 553.433 243.76C553.433 244.413 553.246 245 552.873 245.52C552.513 246.027 551.986 246.427 551.293 246.72C550.613 247.013 549.819 247.16 548.913 247.16ZM558.945 237.42C559.278 236.9 559.738 236.48 560.325 236.16C560.912 235.84 561.598 235.68 562.385 235.68C563.305 235.68 564.138 235.913 564.885 236.38C565.632 236.847 566.218 237.513 566.645 238.38C567.085 239.247 567.305 240.253 567.305 241.4C567.305 242.547 567.085 243.56 566.645 244.44C566.218 245.307 565.632 245.98 564.885 246.46C564.138 246.927 563.305 247.16 562.385 247.16C561.612 247.16 560.925 247 560.325 246.68C559.738 246.36 559.278 245.947 558.945 245.44V252.32H555.525V235.84H558.945V237.42ZM563.825 241.4C563.825 240.547 563.585 239.88 563.105 239.4C562.638 238.907 562.058 238.66 561.365 238.66C560.685 238.66 560.105 238.907 559.625 239.4C559.158 239.893 558.925 240.567 558.925 241.42C558.925 242.273 559.158 242.947 559.625 243.44C560.105 243.933 560.685 244.18 561.365 244.18C562.045 244.18 562.625 243.933 563.105 243.44C563.585 242.933 563.825 242.253 563.825 241.4ZM574.179 247.16C573.086 247.16 572.099 246.927 571.219 246.46C570.353 245.993 569.666 245.327 569.159 244.46C568.666 243.593 568.419 242.58 568.419 241.42C568.419 240.273 568.673 239.267 569.179 238.4C569.686 237.52 570.379 236.847 571.259 236.38C572.139 235.913 573.126 235.68 574.219 235.68C575.313 235.68 576.299 235.913 577.179 236.38C578.059 236.847 578.753 237.52 579.259 238.4C579.766 239.267 580.019 240.273 580.019 241.42C580.019 242.567 579.759 243.58 579.239 244.46C578.733 245.327 578.033 245.993 577.139 246.46C576.259 246.927 575.273 247.16 574.179 247.16ZM574.179 244.2C574.833 244.2 575.386 243.96 575.839 243.48C576.306 243 576.539 242.313 576.539 241.42C576.539 240.527 576.313 239.84 575.859 239.36C575.419 238.88 574.873 238.64 574.219 238.64C573.553 238.64 572.999 238.88 572.559 239.36C572.119 239.827 571.899 240.513 571.899 241.42C571.899 242.313 572.113 243 572.539 243.48C572.979 243.96 573.526 244.2 574.179 244.2ZM585.254 237.7C585.654 237.087 586.154 236.607 586.754 236.26C587.354 235.9 588.02 235.72 588.754 235.72V239.34H587.814C586.96 239.34 586.32 239.527 585.894 239.9C585.467 240.26 585.254 240.9 585.254 241.82V247H581.834V235.84H585.254V237.7ZM596.608 244.1V247H594.868C593.628 247 592.662 246.7 591.968 246.1C591.275 245.487 590.928 244.493 590.928 243.12V238.68H589.568V235.84H590.928V233.12H594.348V235.84H596.588V238.68H594.348V243.16C594.348 243.493 594.428 243.733 594.588 243.88C594.748 244.027 595.015 244.1 595.388 244.1H596.608ZM609.033 241.24C609.033 241.56 609.013 241.893 608.973 242.24H601.233C601.287 242.933 601.507 243.467 601.893 243.84C602.293 244.2 602.78 244.38 603.353 244.38C604.207 244.38 604.8 244.02 605.133 243.3H608.773C608.587 244.033 608.247 244.693 607.753 245.28C607.273 245.867 606.667 246.327 605.933 246.66C605.2 246.993 604.38 247.16 603.473 247.16C602.38 247.16 601.407 246.927 600.553 246.46C599.7 245.993 599.033 245.327 598.553 244.46C598.073 243.593 597.833 242.58 597.833 241.42C597.833 240.26 598.067 239.247 598.533 238.38C599.013 237.513 599.68 236.847 600.533 236.38C601.387 235.913 602.367 235.68 603.473 235.68C604.553 235.68 605.513 235.907 606.353 236.36C607.193 236.813 607.847 237.46 608.313 238.3C608.793 239.14 609.033 240.12 609.033 241.24ZM605.533 240.34C605.533 239.753 605.333 239.287 604.933 238.94C604.533 238.593 604.033 238.42 603.433 238.42C602.86 238.42 602.373 238.587 601.973 238.92C601.587 239.253 601.347 239.727 601.253 240.34H605.533Z" fill="white"/>
<path fill-rule="evenodd" clip-rule="evenodd" d="M585.491 165.027C589.514 165.027 592.762 161.8 592.762 157.834C592.762 153.869 589.514 150.641 585.491 150.641C581.469 150.641 578.221 153.869 578.221 157.834C578.221 161.8 581.469 165.027 585.491 165.027ZM585.491 168C590.846 168 595.244 163.938 595.714 158.756C595.741 158.452 595.755 158.145 595.755 157.834C595.755 157.132 595.683 156.446 595.546 155.783C594.588 151.152 590.451 147.668 585.491 147.668C580.532 147.668 576.394 151.152 575.436 155.783C575.299 156.446 575.227 157.132 575.227 157.834C575.227 158.145 575.241 158.452 575.269 158.756C575.739 163.938 580.136 168 585.491 168Z" fill="url(#paint1_linear)"/>
<path fill-rule="evenodd" clip-rule="evenodd" d="M534.171 165.027C538.194 165.027 541.442 161.8 541.442 157.834C541.442 153.869 538.194 150.641 534.171 150.641C530.149 150.641 526.901 153.869 526.901 157.834C526.901 161.8 530.149 165.027 534.171 165.027ZM534.171 168C539.526 168 543.923 163.938 544.394 158.756C544.421 158.452 544.435 158.145 544.435 157.834C544.435 157.132 544.363 156.446 544.226 155.783C543.268 151.152 539.13 147.668 534.171 147.668C528.503 147.668 523.907 152.22 523.907 157.834C523.907 163.449 528.503 168 534.171 168Z" fill="url(#paint2_linear)"/>
<path fill-rule="evenodd" clip-rule="evenodd" d="M512.503 165.027C516.525 165.027 519.773 161.8 519.773 157.834C519.773 153.869 516.525 150.641 512.503 150.641C508.48 150.641 505.232 153.869 505.232 157.834C505.232 161.8 508.48 165.027 512.503 165.027ZM512.503 168C518.171 168 522.767 163.449 522.767 157.834C522.767 152.22 518.171 147.668 512.503 147.668C507.544 147.668 503.406 151.152 502.448 155.783C502.311 156.446 502.239 157.132 502.239 157.834C502.239 158.145 502.253 158.452 502.28 158.756C502.75 163.938 507.148 168 512.503 168Z" fill="url(#paint3_linear)"/>
<path d="M595.755 157.834C595.755 158.145 595.741 158.452 595.714 158.756H601.244V128.316C601.244 124.837 600.4 123.39 598.784 120.303L595.34 113.725C593.701 110.594 590.443 108.63 586.89 108.63C586.442 108.63 585.995 108.584 585.556 108.493L566.655 102.593C563.246 101.887 560.045 104.47 560.045 107.928V155.783H556.481V106.025C556.481 103.562 554.471 101.565 551.991 101.565H480V104.538H551.991C552.817 104.538 553.488 105.204 553.488 106.025V155.783H544.226C544.363 156.446 544.435 157.132 544.435 157.834C544.435 158.145 544.421 158.452 544.394 158.756H575.269C575.241 158.452 575.227 158.145 575.227 157.834C575.227 157.132 575.299 156.446 575.436 155.783H563.039V107.928C563.039 106.357 564.494 105.182 566.043 105.503L584.944 111.403C585.584 111.536 586.237 111.603 586.89 111.603C589.326 111.603 591.56 112.95 592.684 115.096L596.128 121.674C597.522 124.338 598.25 125.314 598.25 128.316V155.783H595.546C595.683 156.446 595.755 157.132 595.755 157.834Z" fill="url(#paint4_linear)"/>
<path d="M502.239 157.834C502.239 157.132 502.311 156.446 502.448 155.783H480V158.756H502.28C502.253 158.452 502.239 158.145 502.239 157.834Z" fill="url(#paint5_linear)"/>
<path d="M614.394 107.113L614.394 107.113C616.77 106.16 618.213 104.563 618.694 102.715C618.71 102.655 618.724 102.595 618.738 102.534C618.958 101.534 619.733 100.721 620.754 100.479C622.314 100.11 624.221 99.036 625.804 96.0862C625.88 95.9179 627.059 93.2772 627.406 90.0977C627.825 86.2474 626.833 83.4541 624.803 81.6532C624.158 81.0814 624.101 80.2822 624.227 79.7556C624.711 77.7332 623.878 76.3978 623.06 75.667C622.614 75.2683 622.331 74.7528 622.202 74.2217C621.947 73.1696 620.888 72.2422 619.518 71.609C618.711 71.236 618.151 70.4825 618.017 69.6135L619.5 69.3849L618.017 69.6134C617.792 68.1524 617.169 67.0093 616.168 66.1308C614.268 64.4625 611.408 64.1757 609.836 64.1757C609.269 64.1757 608.765 63.8754 608.484 63.4219C607.98 62.6064 607.141 62.1019 606.077 61.8401C605.002 61.5758 603.821 61.5949 602.89 61.7369C602.509 61.7949 602.103 61.7714 601.708 61.6423C600.616 61.2864 599.709 61.0336 598.397 60.7921C596.533 60.449 594.184 60.4524 592.157 60.5779C591.156 60.6398 590.26 60.7298 589.576 60.8141C589.234 60.8562 588.95 60.8965 588.735 60.9303C588.628 60.9473 588.542 60.9621 588.478 60.9741C588.42 60.9849 588.392 60.9911 588.386 60.9924C588.385 60.9927 588.385 60.9928 588.385 60.9926M614.394 107.113L566.634 73.4255C567.206 72.262 568.174 71.326 569.621 70.6557C570.302 70.3402 570.795 69.7576 571.02 69.0812C571.256 68.3722 571.701 67.5265 572.522 66.9244L572.522 66.9243C573.254 66.3881 574.192 66.0901 575.409 66.1122C576.349 66.1292 577.181 65.6504 577.676 64.9446C578.309 64.0422 579.868 62.6074 583.776 62.551C584.174 62.5453 584.565 62.447 584.917 62.2666L584.233 60.9318L584.917 62.2666C585.527 61.9541 586.714 61.418 588.385 60.9926M614.394 107.113C612.124 108.022 609.335 108.185 606.541 107.504L606.541 107.504M614.394 107.113L606.541 107.504M588.385 60.9926L588.016 59.5388L588.386 60.9925C588.386 60.9925 588.385 60.9925 588.385 60.9926ZM606.541 107.504C605.152 107.165 603.437 108.192 603.633 109.983C603.712 110.71 603.845 111.419 604.033 112.107L598.699 112.967C598.457 112.338 598.246 111.507 597.971 110.402C597.971 110.402 597.971 110.402 597.971 110.402L597.968 110.392L597.968 110.392L597.945 110.3C597.178 107.219 596.046 102.671 592.485 99.1848C591.932 98.6435 591.188 98.4275 590.492 98.5007C589.098 98.6473 587.922 98.6878 587.05 98.6878C586.521 98.6878 586.103 98.673 585.816 98.658C585.673 98.6505 585.562 98.643 585.487 98.6372C585.449 98.6344 585.42 98.632 585.401 98.6302L585.378 98.6282L585.378 98.6282M606.541 107.504L585.378 98.6282M585.378 98.6282L585.377 98.6281C580.405 97.9151 578.294 95.366 577.812 92.9859C577.595 91.9172 576.719 90.9821 575.504 90.8555C574.59 90.7602 573.174 90.5428 571.739 90.0597C570.288 89.5711 568.945 88.8532 568.044 87.8368C567.275 86.9683 566.879 85.9697 566.843 84.8064C566.822 84.1086 566.529 83.4863 566.104 83.0259C565.867 82.7683 565.657 82.4408 565.559 82.0306L565.559 82.03C565.427 81.4791 565.5 80.8156 565.961 79.9839C566.267 79.4342 566.38 78.7757 566.237 78.127C565.981 76.9685 565.808 75.1027 566.634 73.4257L585.378 98.6282ZM598.769 113.141L598.769 113.14L598.769 113.141Z" stroke="white" stroke-width="3" stroke-linecap="round"/>
<g opacity="0.3">
<path fill-rule="evenodd" clip-rule="evenodd" d="M131.317 135.871L154.021 113.674L155.55 115.168L132.846 137.366C132.423 137.779 131.739 137.779 131.317 137.366C130.894 136.953 130.894 136.284 131.317 135.871ZM142.191 144.038L160.571 126.068L162.1 127.563L143.72 145.533C143.298 145.946 142.614 145.946 142.191 145.533C141.769 145.12 141.769 144.451 142.191 144.038ZM160.277 143.305L188.614 115.721L190.143 117.216L161.806 144.8C161.384 145.213 160.699 145.213 160.277 144.8C159.855 144.387 159.855 143.718 160.277 143.305ZM158.177 161.9L173.965 146.34L175.494 147.835L159.706 163.395C159.284 163.808 158.599 163.808 158.177 163.395C157.755 162.982 157.755 162.313 158.177 161.9ZM168.077 166.195L194.565 140.298L196.094 141.793L169.606 167.69C169.183 168.103 168.499 168.103 168.077 167.69C167.654 167.277 167.654 166.608 168.077 166.195Z" fill="white"/>
<path fill-rule="evenodd" clip-rule="evenodd" d="M202.189 102.897H152.443V152.752H202.189V102.897ZM203.689 155.752H149.443V101.397L191.755 59H246V113.355L203.689 155.752ZM205.189 150.002L243 112.114V64.1295L205.189 102.017V150.002ZM240.887 62L203.066 99.8971H180.182L218.003 62H240.887ZM213.764 62H192.999L155.179 99.8971H175.944L213.764 62Z" fill="url(#paint6_linear)"/>
</g>
<path opacity="0.5" d="M152.564 217L149.644 211.7H148.824V217H145.404V202.96H151.144C152.251 202.96 153.191 203.153 153.964 203.54C154.751 203.927 155.337 204.46 155.724 205.14C156.111 205.807 156.304 206.553 156.304 207.38C156.304 208.313 156.037 209.147 155.504 209.88C154.984 210.613 154.211 211.133 153.184 211.44L156.424 217H152.564ZM148.824 209.28H150.944C151.571 209.28 152.037 209.127 152.344 208.82C152.664 208.513 152.824 208.08 152.824 207.52C152.824 206.987 152.664 206.567 152.344 206.26C152.037 205.953 151.571 205.8 150.944 205.8H148.824V209.28ZM168.971 211.24C168.971 211.56 168.951 211.893 168.911 212.24H161.171C161.224 212.933 161.444 213.467 161.831 213.84C162.231 214.2 162.718 214.38 163.291 214.38C164.144 214.38 164.738 214.02 165.071 213.3H168.711C168.524 214.033 168.184 214.693 167.691 215.28C167.211 215.867 166.604 216.327 165.871 216.66C165.138 216.993 164.318 217.16 163.411 217.16C162.318 217.16 161.344 216.927 160.491 216.46C159.638 215.993 158.971 215.327 158.491 214.46C158.011 213.593 157.771 212.58 157.771 211.42C157.771 210.26 158.004 209.247 158.471 208.38C158.951 207.513 159.618 206.847 160.471 206.38C161.324 205.913 162.304 205.68 163.411 205.68C164.491 205.68 165.451 205.907 166.291 206.36C167.131 206.813 167.784 207.46 168.251 208.3C168.731 209.14 168.971 210.12 168.971 211.24ZM165.471 210.34C165.471 209.753 165.271 209.287 164.871 208.94C164.471 208.593 163.971 208.42 163.371 208.42C162.798 208.42 162.311 208.587 161.911 208.92C161.524 209.253 161.284 209.727 161.191 210.34H165.471ZM176.995 214.1V217H175.255C174.015 217 173.048 216.7 172.355 216.1C171.662 215.487 171.315 214.493 171.315 213.12V208.68H169.955V205.84H171.315V203.12H174.735V205.84H176.975V208.68H174.735V213.16C174.735 213.493 174.815 213.733 174.975 213.88C175.135 214.027 175.402 214.1 175.775 214.1H176.995ZM180.62 204.68C180.02 204.68 179.527 204.507 179.14 204.16C178.767 203.8 178.58 203.36 178.58 202.84C178.58 202.307 178.767 201.867 179.14 201.52C179.527 201.16 180.02 200.98 180.62 200.98C181.207 200.98 181.687 201.16 182.06 201.52C182.447 201.867 182.64 202.307 182.64 202.84C182.64 203.36 182.447 203.8 182.06 204.16C181.687 204.507 181.207 204.68 180.62 204.68ZM182.32 205.84V217H178.9V205.84H182.32ZM188.219 207.7C188.619 207.087 189.119 206.607 189.719 206.26C190.319 205.9 190.985 205.72 191.719 205.72V209.34H190.779C189.925 209.34 189.285 209.527 188.859 209.9C188.432 210.26 188.219 210.9 188.219 211.82V217H184.799V205.84H188.219V207.7ZM192.673 211.4C192.673 210.253 192.887 209.247 193.313 208.38C193.753 207.513 194.347 206.847 195.093 206.38C195.84 205.913 196.673 205.68 197.593 205.68C198.38 205.68 199.067 205.84 199.653 206.16C200.253 206.48 200.713 206.9 201.033 207.42V205.84H204.453V217H201.033V215.42C200.7 215.94 200.233 216.36 199.633 216.68C199.047 217 198.36 217.16 197.573 217.16C196.667 217.16 195.84 216.927 195.093 216.46C194.347 215.98 193.753 215.307 193.313 214.44C192.887 213.56 192.673 212.547 192.673 211.4ZM201.033 211.42C201.033 210.567 200.793 209.893 200.313 209.4C199.847 208.907 199.273 208.66 198.593 208.66C197.913 208.66 197.333 208.907 196.853 209.4C196.387 209.88 196.153 210.547 196.153 211.4C196.153 212.253 196.387 212.933 196.853 213.44C197.333 213.933 197.913 214.18 198.593 214.18C199.273 214.18 199.847 213.933 200.313 213.44C200.793 212.947 201.033 212.273 201.033 211.42ZM206.248 211.4C206.248 210.253 206.461 209.247 206.888 208.38C207.328 207.513 207.921 206.847 208.668 206.38C209.414 205.913 210.248 205.68 211.168 205.68C211.901 205.68 212.568 205.833 213.168 206.14C213.781 206.447 214.261 206.86 214.608 207.38V202.2H218.028V217H214.608V215.4C214.288 215.933 213.828 216.36 213.228 216.68C212.641 217 211.954 217.16 211.168 217.16C210.248 217.16 209.414 216.927 208.668 216.46C207.921 215.98 207.328 215.307 206.888 214.44C206.461 213.56 206.248 212.547 206.248 211.4ZM214.608 211.42C214.608 210.567 214.368 209.893 213.888 209.4C213.421 208.907 212.848 208.66 212.168 208.66C211.488 208.66 210.908 208.907 210.428 209.4C209.961 209.88 209.728 210.547 209.728 211.4C209.728 212.253 209.961 212.933 210.428 213.44C210.908 213.933 211.488 214.18 212.168 214.18C212.848 214.18 213.421 213.933 213.888 213.44C214.368 212.947 214.608 212.273 214.608 211.42ZM219.822 211.4C219.822 210.253 220.035 209.247 220.462 208.38C220.902 207.513 221.495 206.847 222.242 206.38C222.988 205.913 223.822 205.68 224.742 205.68C225.528 205.68 226.215 205.84 226.802 206.16C227.402 206.48 227.862 206.9 228.182 207.42V205.84H231.602V217H228.182V215.42C227.848 215.94 227.382 216.36 226.782 216.68C226.195 217 225.508 217.16 224.722 217.16C223.815 217.16 222.988 216.927 222.242 216.46C221.495 215.98 220.902 215.307 220.462 214.44C220.035 213.56 219.822 212.547 219.822 211.4ZM228.182 211.42C228.182 210.567 227.942 209.893 227.462 209.4C226.995 208.907 226.422 208.66 225.742 208.66C225.062 208.66 224.482 208.907 224.002 209.4C223.535 209.88 223.302 210.547 223.302 211.4C223.302 212.253 223.535 212.933 224.002 213.44C224.482 213.933 225.062 214.18 225.742 214.18C226.422 214.18 226.995 213.933 227.462 213.44C227.942 212.947 228.182 212.273 228.182 211.42Z" fill="white"/>
<g opacity="0.3">
<g opacity="0.3">
<path fill-rule="evenodd" clip-rule="evenodd" d="M971.72 92.7965L964.956 99.3753V96.6265L970.307 91.4221C970.697 91.0425 971.33 91.0425 971.72 91.4221C972.111 91.8016 972.111 92.417 971.72 92.7965ZM971.717 80.2175L964.956 86.7929V84.109L970.304 78.843C970.694 78.4635 971.327 78.4635 971.717 78.843C972.107 79.2226 972.107 79.8379 971.717 80.2175ZM976.159 61.6686L957.383 80H954.375L974.745 60.2942C975.136 59.9146 975.768 59.9146 976.159 60.2942C976.549 60.6737 976.549 61.2891 976.159 61.6686Z" fill="white"/>
<path d="M980.707 97.3066C980.317 96.927 979.684 96.927 979.294 97.3066L964.956 111.251V114L980.707 98.681C981.098 98.3015 981.098 97.6861 980.707 97.3066Z" fill="white"/>
<path d="M946.573 75.3897C946.182 75.0101 945.55 75.0101 945.159 75.3897L940.423 79.998H943.25L946.573 76.7641C946.963 76.3846 946.963 75.7692 946.573 75.3897Z" fill="white"/>
<path d="M947.801 59.1733C947.411 58.7937 946.778 58.7937 946.388 59.1733L924.976 79.998H927.802L947.801 60.5477C948.192 60.1682 948.192 59.5528 947.801 59.1733Z" fill="white"/>
</g>
<path fill-rule="evenodd" clip-rule="evenodd" d="M924.476 120.062H878.999V165H924.476V120.062ZM925.975 168H876V118.562V118.578L914.981 80H964.956V129.438L925.975 168ZM927.475 162.298L961.957 128.186V85.0757L927.475 119.188V162.298ZM959.791 83L925.359 117.062H904.636L939.068 83H959.791ZM934.803 83H916.213L881.781 117.062H900.372L934.803 83Z" fill="url(#paint7_linear)"/>
</g>
<defs>
<linearGradient id="paint0_linear" x1="6" y1="26.5" x2="1102" y2="26.5" gradientUnits="userSpaceOnUse">
<stop stop-color="white" stop-opacity="0.1"/>
<stop offset="0.501632" stop-color="white"/>
<stop offset="1" stop-color="white" stop-opacity="0.1"/>
</linearGradient>
<linearGradient id="paint1_linear" x1="570" y1="125.886" x2="481.342" y2="125.886" gradientUnits="userSpaceOnUse">
<stop stop-color="white"/>
<stop offset="1" stop-color="white" stop-opacity="0"/>
</linearGradient>
<linearGradient id="paint2_linear" x1="570" y1="125.886" x2="481.342" y2="125.886" gradientUnits="userSpaceOnUse">
<stop stop-color="white"/>
<stop offset="1" stop-color="white" stop-opacity="0"/>
</linearGradient>
<linearGradient id="paint3_linear" x1="570" y1="125.886" x2="481.342" y2="125.886" gradientUnits="userSpaceOnUse">
<stop stop-color="white"/>
<stop offset="1" stop-color="white" stop-opacity="0"/>
</linearGradient>
<linearGradient id="paint4_linear" x1="570" y1="125.886" x2="481.342" y2="125.886" gradientUnits="userSpaceOnUse">
<stop stop-color="white"/>
<stop offset="1" stop-color="white" stop-opacity="0"/>
</linearGradient>
<linearGradient id="paint5_linear" x1="570" y1="125.886" x2="481.342" y2="125.886" gradientUnits="userSpaceOnUse">
<stop stop-color="white"/>
<stop offset="1" stop-color="white" stop-opacity="0"/>
</linearGradient>
<linearGradient id="paint6_linear" x1="246.048" y1="59" x2="148.218" y2="154.497" gradientUnits="userSpaceOnUse">
<stop stop-color="white" stop-opacity="0"/>
<stop offset="1" stop-color="white"/>
</linearGradient>
<linearGradient id="paint7_linear" x1="965" y1="80" x2="876" y2="168" gradientUnits="userSpaceOnUse">
<stop stop-color="white" stop-opacity="0"/>
<stop offset="1" stop-color="white"/>
</linearGradient>
</defs>
</svg>
