<svg width="153" height="155" viewBox="0 0 153 155" fill="none" xmlns="http://www.w3.org/2000/svg">
<g opacity="0.4">
<path d="M116.612 70.1644L117.411 70.7658L117.429 70.7415L117.446 70.7163L116.612 70.1644ZM97.2168 95.9323L96.4178 95.3309L97.2168 95.9323ZM36.3882 70.1644L35.5542 70.7163L35.5656 70.7334L35.5776 70.75L36.3882 70.1644ZM54.9144 95.8055L55.725 95.2199L54.9144 95.8055ZM75.835 142.437C75.2879 142.512 74.9059 143.017 74.9817 143.564C75.0575 144.111 75.5624 144.493 76.1094 144.418L75.835 142.437ZM61.3776 141.637L62.3772 141.609L61.3776 141.637ZM89.5824 142.473C89.5824 145.208 87.7931 147.827 85.0674 149.816C82.3545 151.795 78.9059 153 75.9784 153V155C79.3882 155 83.2415 153.624 86.2463 151.432C89.2383 149.248 91.5824 146.103 91.5824 142.473H89.5824ZM30 45.5377C30 21.5748 52.4815 2 76.5 2V0C51.5492 0 28 20.3055 28 45.5377H30ZM76.5 2C100.518 2 123 21.5748 123 45.5377H125C125 20.3055 101.451 0 76.5 0V2ZM123 45.5377C123 54.4412 120.341 62.7175 115.778 69.6125L117.446 70.7163C122.219 63.5036 125 54.8452 125 45.5377H123ZM98.0157 96.5336L117.411 70.7658L115.813 69.563L96.4178 95.3309L98.0157 96.5336ZM62.3745 140.377V120.466H60.3745V140.377H62.3745ZM37.2221 69.6125C32.659 62.7175 30 54.4412 30 45.5377H28C28 54.8452 30.7809 63.5036 35.5542 70.7163L37.2221 69.6125ZM55.725 95.2199L37.1987 69.5787L35.5776 70.75L54.1039 96.3912L55.725 95.2199ZM61.3745 121.466H90.5824V119.466H61.3745V121.466ZM62.3745 120.466C62.3745 116.799 61.7978 112.009 60.6922 107.399C59.591 102.809 57.9385 98.2835 55.725 95.2199L54.1039 96.3912C56.0911 99.1417 57.6687 103.369 58.7473 107.866C59.8216 112.344 60.3745 116.977 60.3745 120.466H62.3745ZM91.5824 120.466C91.5824 116.986 92.1515 112.364 93.2551 107.906C94.3633 103.43 95.982 99.2355 98.0157 96.5336L96.4178 95.3309C94.1444 98.3513 92.4459 102.852 91.3137 107.426C90.1768 112.018 89.5824 116.802 89.5824 120.466H91.5824ZM90.4403 124.716L61.2324 128.907L61.5166 130.887L90.7244 126.695L90.4403 124.716ZM90.4403 129.955L61.2324 134.147L61.5166 136.127L90.7244 131.935L90.4403 129.955ZM90.4403 135.195L61.2324 139.387L61.5166 141.367L90.7244 137.175L90.4403 135.195ZM90.2899 140.434L75.835 142.437L76.1094 144.418L90.5643 142.415L90.2899 140.434ZM91.5824 142.473V120.466H89.5824V142.473H91.5824ZM75.9784 153C73.1331 153 69.7433 151.603 67.0254 149.401C64.2967 147.19 62.4559 144.345 62.3772 141.609L60.378 141.666C60.4802 145.221 62.8065 148.557 65.7664 150.955C68.7371 153.362 72.5573 155 75.9784 155V153ZM62.3772 141.609C62.3773 141.614 62.3771 141.603 62.3768 141.56C62.3766 141.524 62.3764 141.475 62.3762 141.417C62.3759 141.302 62.3755 141.154 62.3753 141.005C62.3748 140.708 62.3745 140.411 62.3745 140.377H60.3745C60.3745 140.433 60.3754 141.576 60.378 141.666L62.3772 141.609Z" fill="url(#paint0_linear)"/>
<path d="M76.4998 24.5058C76.4998 18.4256 87.9496 18.6234 91.1953 23.3197L94.6157 28.269C95.3282 29.3 96.2068 30.2084 97.2163 30.958C100.123 33.1161 101.833 36.503 101.833 40.0998V47.2052C101.833 49.2764 101.394 51.3246 100.544 53.2173L100.055 54.3082C99.211 56.1877 98.9304 58.2676 99.2463 60.3004L99.3824 61.1766C99.9408 64.7694 98.344 68.3567 95.289 70.3731L92.7961 72.0184C91.7275 72.7237 91.0857 73.9111 91.0857 75.1826C91.0857 76.1076 90.7471 76.9783 90.1646 77.6533C89.3902 78.5507 88.2296 78.9989 87.1544 79.4976C83.8467 81.0315 76.4998 83.5246 76.4998 75.4041M76.4998 24.5058C76.4998 18.4256 65.05 18.6234 61.8044 23.3197L58.384 28.269C57.6714 29.3 56.7929 30.2084 55.7834 30.958C52.877 33.1161 51.1665 36.503 51.1665 40.0998V47.2052C51.1665 49.2764 51.6055 51.3246 52.4552 53.2173L52.9449 54.3082C53.7887 56.1877 54.0693 58.2676 53.7534 60.3004L53.6172 61.1766C53.0589 64.7694 54.6557 68.3567 57.7107 70.3731L60.2035 72.0184C61.2721 72.7237 61.914 73.9111 61.914 75.1826C61.914 76.1076 62.2526 76.9782 62.8351 77.6533C63.6095 78.5507 64.77 78.9989 65.8453 79.4976C69.1529 81.0315 76.4998 83.5246 76.4998 75.4041M76.4998 24.5058V51.1067V75.4041" stroke="#221E1F" stroke-width="3"/>
</g>
<defs>
<linearGradient id="paint0_linear" x1="76.5" y1="1" x2="76.5" y2="154" gradientUnits="userSpaceOnUse">
<stop offset="0.0411502" stop-color="#221E1F" stop-opacity="0"/>
<stop offset="1" stop-color="#221E1F" stop-opacity="0.51"/>
</linearGradient>
</defs>
</svg>
