<svg width="153" height="153" viewBox="0 0 153 153" fill="none" xmlns="http://www.w3.org/2000/svg">
<g opacity="0.3">
<path d="M100.318 118.948C100.749 118.602 100.817 117.973 100.472 117.542C100.126 117.111 99.4963 117.042 99.0657 117.388L100.318 118.948ZM103.816 130.069C104.275 129.761 104.396 129.14 104.088 128.681C103.78 128.223 103.158 128.101 102.7 128.41L103.816 130.069ZM103.381 143.748C103.876 143.502 104.078 142.902 103.832 142.407C103.586 141.912 102.986 141.711 102.492 141.956L103.381 143.748ZM96.8728 44.0307C96.3705 43.8011 95.7772 44.0221 95.5475 44.5244C95.3179 45.0266 95.5389 45.62 96.0412 45.8496L96.8728 44.0307ZM27.7765 92.6229C27.8163 93.1738 28.295 93.5881 28.8459 93.5483C29.3967 93.5086 29.8111 93.0298 29.7713 92.479L27.7765 92.6229ZM39.0093 94.3998C39.086 94.9467 39.5916 95.3279 40.1386 95.2511C40.6855 95.1744 41.0666 94.6688 40.9899 94.1219L39.0093 94.3998ZM108.178 36.9019C107.708 36.6124 107.092 36.759 106.802 37.2293C106.513 37.6997 106.66 38.3156 107.13 38.6051L108.178 36.9019ZM88.9251 52.7527C88.4028 52.5732 87.8338 52.851 87.6543 53.3733C87.4748 53.8956 87.7526 54.4646 88.2749 54.6441L88.9251 52.7527ZM16.1833 85.4122C16.1516 85.9635 16.5729 86.4362 17.1242 86.4679C17.6756 86.4996 18.1483 86.0784 18.18 85.527L16.1833 85.4122ZM39.6064 40.7227C26.1719 51.1968 17.2283 67.2375 16.1833 85.4122L18.18 85.527C19.1909 67.9468 27.8406 52.4318 40.8361 42.3L39.6064 40.7227ZM136.975 83.643C135.266 63.837 124.163 46.7412 108.178 36.9019L107.13 38.6051C122.59 48.1219 133.33 64.658 134.983 83.8149L136.975 83.643ZM29.7713 92.479C29.6883 91.3286 29.6461 90.1666 29.6461 88.9945H27.6461C27.6461 90.2147 27.69 91.4247 27.7765 92.6229L29.7713 92.479ZM29.6461 88.9945C29.6461 74.6752 35.9525 61.8427 45.9203 53.1589L44.6065 51.6509C34.2191 60.7003 27.6461 74.0756 27.6461 88.9945H29.6461ZM96.0412 45.8496C110.298 52.368 120.754 65.8513 123.129 81.9885L125.108 81.6973C122.633 64.8784 111.736 50.8264 96.8728 44.0307L96.0412 45.8496ZM40.9899 94.1219C40.7549 92.4473 40.6333 90.7355 40.6333 88.9945H38.6333C38.6333 90.8288 38.7614 92.6334 39.0093 94.3998L40.9899 94.1219ZM40.6333 88.9945C40.6333 78.785 44.8165 69.5629 51.5506 62.9694L50.1514 61.5403C43.0472 68.4962 38.6333 78.2277 38.6333 88.9945H40.6333ZM88.2749 54.6441C100.208 58.746 109.326 68.9878 111.911 81.6332L113.871 81.2326C111.143 67.8911 101.526 57.0839 88.9251 52.7527L88.2749 54.6441ZM76.6429 125.28C72.6324 125.28 68.7769 124.619 65.1764 123.401L64.5356 125.296C68.3397 126.583 72.4115 127.28 76.6429 127.28V125.28ZM99.0657 117.388C92.9129 122.328 85.1209 125.28 76.6429 125.28V127.28C85.5939 127.28 93.824 124.162 100.318 118.948L99.0657 117.388ZM102.7 128.41C95.2427 133.425 86.2829 136.349 76.6429 136.349V138.349C86.6937 138.349 96.04 135.299 103.816 130.069L102.7 128.41ZM76.6429 136.349C70.5453 136.349 64.7211 135.179 59.3776 133.051L58.6377 134.909C64.2125 137.129 70.2875 138.349 76.6429 138.349V136.349ZM76.6429 150C86.2389 150 95.3161 147.751 103.381 143.748L102.492 141.956C94.6966 145.826 85.9231 148 76.6429 148V150ZM51.3287 144.431C59.0323 148.006 67.6077 150 76.6429 150V148C67.9048 148 59.6161 146.073 52.1706 142.617L51.3287 144.431Z" fill="url(#paint0_linear)"/>
<path d="M66.0996 77.3932C62.9837 80.2689 61.0299 84.4018 61.0299 88.9945C61.0299 89.7153 61.0781 90.4246 61.1712 91.1196C62.1935 90.4197 63.1509 89.7367 64.0303 89.0901C64.0301 89.0583 64.0299 89.0264 64.0299 88.9945C64.0299 85.5285 65.4049 82.389 67.6333 80.0969L66.0996 77.3932Z" fill="#221E1F"/>
<path fill-rule="evenodd" clip-rule="evenodd" d="M66.0996 77.3932L67.6333 80.0969C68.342 79.3679 69.137 78.7247 70.0016 78.1839C71.9312 76.9769 74.2073 76.2803 76.6434 76.2803C77.0887 76.2803 77.5286 76.3036 77.9621 76.349C79.0422 76.4622 80.082 76.7128 81.064 77.0833C85.0646 78.5927 88.1044 82.0916 88.992 86.3897C89.1655 87.2304 89.2568 88.1016 89.2568 88.9945C89.2568 89.1357 89.2545 89.2764 89.25 89.4165C89.1482 92.5651 87.9114 95.4222 85.9398 97.5878C85.199 98.4015 84.3545 99.1175 83.4276 99.7148C81.4679 100.977 79.1396 101.709 76.6434 101.709C74.8989 101.709 73.2364 101.352 71.7245 100.705C70.7949 100.308 69.9222 99.8018 69.1224 99.2021C66.9211 97.5517 65.2713 95.1948 64.5047 92.4626C64.2037 91.3896 64.0388 90.2588 64.0303 89.0901C63.1509 89.7367 62.1935 90.4197 61.1712 91.1196C52.5434 97.027 39.2901 104.14 29.2107 100.734C25.5429 99.4939 21.715 96.6652 18.5101 93.8027C14.6694 90.3725 8.28551 91.1687 6.03864 95.8177L4.01398 100.007C-0.357563 109.052 -1.19213 119.423 1.67604 129.059C10.2378 150.663 39.5729 153.223 51.694 133.424L70.1375 103.298C72.118 104.214 74.3215 104.724 76.6434 104.724C80.3613 104.724 83.7757 103.415 86.4572 101.229C95.5712 105.982 106.844 113.717 108.754 123.575C109.495 127.4 108.943 132.15 108.055 136.371C106.991 141.43 110.83 146.629 115.952 146.302L120.568 146.007C130.534 145.371 139.898 140.981 146.8 133.71C161.22 115.542 148.944 88.5791 125.869 87.7364L92.0618 86.5018C91.0916 80.3627 86.5955 75.4076 80.7304 73.8093C79.84 63.4218 80.2513 49.1392 87.7529 42.1243C90.5884 39.4728 94.8856 37.4402 98.9141 35.9747C103.742 34.2186 106.102 28.1902 103.125 23.978L100.443 20.1824C94.6509 11.9871 86.0111 6.28643 76.2395 4.21261C53.313 1.44918 37.0451 26.1748 48.5019 46.3712L66.0996 77.3932ZM74.5611 95.7574L74.6368 95.9484L74.6123 95.9885C74.4918 95.9456 74.4289 95.924 74.4289 95.924L74.5611 95.7574ZM92.248 89.526C92.1296 93.1206 90.8139 96.4098 88.69 99.0018C89.7319 99.5582 90.7971 100.152 91.8703 100.781C96.0808 103.25 100.505 106.326 104.124 109.962C107.728 113.583 110.72 117.946 111.699 122.998C112.558 127.436 111.9 132.673 110.99 136.995C110.266 140.437 112.949 143.473 115.762 143.293L120.378 142.998C129.546 142.413 138.164 138.391 144.537 131.726C157.299 115.485 146.317 91.5005 125.76 90.7498L92.248 89.526ZM68.5144 75.5623C70.8822 74.1048 73.6654 73.2649 76.6434 73.2649C76.9912 73.2649 77.3363 73.2764 77.6784 73.299C77.5611 71.7962 77.4718 70.2205 77.4264 68.6017C77.2887 63.6964 77.5499 58.2885 78.7079 53.2742C79.8608 48.2821 81.9632 43.4198 85.7095 39.9166C89.0006 36.8391 93.7673 34.6402 97.8932 33.1393C101.161 31.9504 102.327 28.0546 100.68 25.7243L97.9972 21.9287C92.667 14.3868 84.7299 9.13107 75.7509 7.19101C55.3549 4.83434 40.8861 26.8582 51.108 44.8777L68.5144 75.5623ZM67.5449 101.779L49.139 131.843C38.3355 149.49 12.2241 147.255 4.51212 128.066C1.90485 119.19 2.68883 109.65 6.71244 101.325L8.73709 97.1353C9.97669 94.5704 13.9169 93.7341 16.5173 96.0567C19.7992 98.9879 23.9964 102.153 28.2546 103.592C33.1033 105.23 38.3507 104.763 43.2559 103.394C48.1825 102.018 53.0224 99.6608 57.2327 97.1914C58.8893 96.2198 60.4628 95.2223 61.9216 94.2468C62.9954 97.3014 64.9793 99.9224 67.5449 101.779Z" fill="#221E1F"/>
</g>
<defs>
<linearGradient id="paint0_linear" x1="76.5803" y1="37.5424" x2="76.5803" y2="150.224" gradientUnits="userSpaceOnUse">
<stop offset="0.0411502" stop-color="#221E1F" stop-opacity="0"/>
<stop offset="1" stop-color="#221E1F" stop-opacity="0.51"/>
</linearGradient>
</defs>
</svg>
