<svg width="171" height="200" viewBox="0 0 171 200" fill="none" xmlns="http://www.w3.org/2000/svg">
<path fill-rule="evenodd" clip-rule="evenodd" d="M130.93 50.1091C139.014 54.0855 145.561 60.6416 149.537 68.7231C160.032 90.0577 150.251 115.853 128.218 124.767L75.8709 145.946C74.3057 146.579 72.5838 146.622 71.0139 146.102L58.8351 158.281C56.966 160.15 55.917 162.687 55.9198 165.332L55.9209 166.42C55.9279 172.986 50.9549 178.482 44.4216 179.128L43.6399 179.206C38.5626 179.708 33.7431 176.861 31.7295 172.172L31.5909 171.849C30.8686 170.167 29.5044 168.843 27.8018 168.171C23.2867 166.388 20.4997 161.826 20.9776 156.996L21.109 155.668C21.7479 149.211 27.1799 144.296 33.6687 144.303L34.8917 144.304C37.5376 144.307 40.0742 143.258 41.9432 141.389L54.1156 129.217C53.5757 127.625 53.6072 125.875 54.2393 124.28L75.1149 71.6101C83.8684 49.5246 109.599 39.6157 130.93 50.1091ZM56.5163 132.473L44.7717 144.217C42.1509 146.838 38.595 148.308 34.8875 148.304L33.6645 148.303C29.2335 148.298 25.5258 151.654 25.0895 156.062L24.9582 157.389C24.6564 160.44 26.4168 163.323 29.2708 164.45C31.9649 165.514 34.1234 167.61 35.2663 170.271L35.4049 170.594L33.7179 171.318L35.4049 170.594C36.7311 173.682 39.905 175.556 43.246 175.225L44.0277 175.148C48.5124 174.704 51.9257 170.932 51.9209 166.425L51.9198 165.337C51.9159 161.629 53.3859 158.073 56.0067 155.452L67.7513 143.708L56.5163 132.473ZM71.8075 142.107C72.599 142.525 73.537 142.575 74.3707 142.238L126.718 121.059C146.587 113.021 155.422 89.7483 145.947 70.4888C142.361 63.1981 136.454 57.284 129.165 53.6984C109.925 44.234 86.7253 53.1725 78.8335 73.0839L57.9579 125.754C57.6141 126.622 57.6731 127.595 58.1128 128.413L71.8075 142.107Z" fill="#B0AEAE"/>
<path d="M103.931 139.45V162.91C103.931 166.912 105.524 170.75 108.358 173.579L109.329 174.548C114.27 179.478 114.662 187.346 110.238 192.743L109.61 193.509C106.229 197.632 100.563 199.091 95.6077 197.113L95.1964 196.949C92.4292 195.844 89.3348 195.89 86.6016 197.076C82.0203 199.063 76.6748 197.771 73.5101 193.912L72.444 192.611C68.0805 187.289 68.468 179.53 73.3401 174.668L74.4314 173.579C77.266 170.75 78.8588 166.912 78.8588 162.91V139.45C76.8487 138.983 75.18 137.591 74.3618 135.698L46.0202 70.1397C34.721 44.003 48.129 13.7945 75.1066 4.60728C85.3283 1.12626 96.4372 1.13324 106.659 4.61425C133.652 13.8067 147.224 43.973 136.105 70.2039L108.321 135.745C107.531 137.607 105.901 138.983 103.931 139.45Z" fill="white"/>
<path fill-rule="evenodd" clip-rule="evenodd" d="M74.4619 2.71405C85.1025 -0.909626 96.6648 -0.902058 107.304 2.72102C135.391 12.2862 149.521 43.6788 137.946 70.9845L110.162 136.525C109.338 138.469 107.818 140.01 105.931 140.869V162.91C105.931 166.381 107.312 169.71 109.771 172.163L110.742 173.132C116.411 178.789 116.862 187.818 111.784 194.011L111.157 194.777C107.223 199.575 100.63 201.271 94.8663 198.97L94.4551 198.806C92.1829 197.899 89.6419 197.937 87.3976 198.91C81.9972 201.253 75.6952 199.731 71.9636 195.18L70.8975 193.879C65.8813 187.761 66.327 178.841 71.9274 173.252L73.0187 172.163C75.4776 169.71 76.8588 166.381 76.8588 162.91V140.878C74.9342 140.017 73.3779 138.462 72.5261 136.492L44.1844 70.9333C32.4213 43.7234 46.3809 12.277 74.4619 2.71405ZM80.8588 141.45V162.91C80.8588 167.444 79.0546 171.791 75.8442 174.995L74.7528 176.084C70.6091 180.219 70.2798 186.817 73.9907 191.343L75.0568 192.643C77.6545 195.812 82.0435 196.873 85.8056 195.241C89.0278 193.843 92.6757 193.789 95.9379 195.091L96.3491 195.255C100.495 196.91 105.236 195.689 108.063 192.24L108.691 191.475C112.463 186.874 112.129 180.167 107.916 175.963L106.946 174.995C103.735 171.791 101.931 167.444 101.931 162.91V141.45H80.8588ZM103.675 137.45C104.934 137.087 105.966 136.175 106.48 134.964L134.263 69.4233C144.927 44.2672 131.913 15.3272 106.014 6.50748C96.2096 3.16853 85.5542 3.16215 75.7514 6.5005C49.8771 15.312 37.0209 44.2826 47.856 69.346L76.1976 134.905C76.7361 136.15 77.8076 137.084 79.1095 137.45H103.675Z" fill="black"/>
</svg>
