<svg width="105" height="109" viewBox="0 0 105 109" fill="none" xmlns="http://www.w3.org/2000/svg">
<g opacity="0.3">
<g opacity="0.3">
<path fill-rule="evenodd" clip-rule="evenodd" d="M95.7205 33.8732L88.9559 40.4453V37.6993L94.3072 32.5002C94.6975 32.121 95.3302 32.121 95.7205 32.5002C96.1107 32.8793 96.1107 33.494 95.7205 33.8732ZM95.717 21.307L88.9559 27.8758V25.1946L94.3038 19.934C94.694 19.5548 95.3268 19.5548 95.717 19.934C96.1073 20.3131 96.1073 20.9278 95.717 21.307ZM100.159 2.77708L81.3834 21.0898H78.3751L98.7453 1.40404C99.1355 1.02489 99.7683 1.02489 100.159 1.40404C100.549 1.7832 100.549 2.39792 100.159 2.77708Z" fill="white"/>
<path d="M104.707 38.3787C104.317 37.9995 103.684 37.9995 103.294 38.3787L88.9559 52.309V55.0551L104.707 39.7517C105.098 39.3725 105.098 38.7578 104.707 38.3787Z" fill="white"/>
<path d="M70.5726 16.4841C70.1824 16.105 69.5496 16.105 69.1594 16.4841L64.4234 21.0877H67.2498L70.5726 17.8572C70.9629 17.478 70.9629 16.8633 70.5726 16.4841Z" fill="white"/>
<path d="M71.8014 0.284294C71.4112 -0.0948563 70.7784 -0.0948563 70.3882 0.284294L48.9758 21.0877H51.8022L71.8014 1.65733C72.1917 1.27818 72.1917 0.663448 71.8014 0.284294Z" fill="white"/>
</g>
<path fill-rule="evenodd" clip-rule="evenodd" d="M48.476 61.1107H2.99852V106.003H48.476V61.1107ZM49.9753 109H0V59.6122V59.6285L38.9807 21.0898H88.956V70.4775L49.9753 109ZM51.4745 103.304L85.9575 69.2262V26.1603L51.4745 60.2379V103.304ZM83.791 24.0867L49.3592 58.1137H28.6363L63.0681 24.0867H83.791ZM58.8034 24.0867H40.2128L5.781 58.1137H24.3716L58.8034 24.0867Z" fill="url(#paint0_linear)"/>
</g>
<defs>
<linearGradient id="paint0_linear" x1="89" y1="21.0898" x2="0.0898676" y2="109.091" gradientUnits="userSpaceOnUse">
<stop stop-color="white" stop-opacity="0"/>
<stop offset="1" stop-color="white"/>
</linearGradient>
</defs>
</svg>
