<svg width="153" height="153" viewBox="0 0 153 153" fill="none" xmlns="http://www.w3.org/2000/svg">
<g opacity="0.4" clip-path="url(#clip0)">
<path d="M204.48 -33.2611L206.329 -36.0373C206.632 -36.4926 206.993 -36.9065 207.403 -37.2685L207.927 -37.731C209.604 -39.2115 210.204 -41.5683 209.439 -43.6713C209.063 -44.7079 209.01 -45.8345 209.287 -46.9018L212.946 -60.9688C213.142 -61.7241 213.197 -62.5093 213.107 -63.2846L211.55 -76.7211C211.45 -77.589 211.531 -78.4682 211.787 -79.3032L212.87 -82.8263C213.106 -83.5931 212.985 -84.4253 212.54 -85.0928L212.228 -85.5609C211.739 -86.2954 211.807 -87.2677 212.393 -87.9275C212.908 -88.5082 213.028 -89.3408 212.698 -90.0438L212.393 -90.6931C211.813 -91.9249 212.179 -93.3945 213.267 -94.2113L217.244 -97.1965C217.496 -97.3856 217.855 -97.2057 217.855 -96.8906C217.855 -96.5608 218.244 -96.3864 218.489 -96.6072C224.671 -102.184 227.458 -106.032 231 -113.581H131.269C130.742 -113.581 130.232 -113.394 129.83 -113.053L128.482 -111.911C127.978 -111.485 128.043 -110.689 128.608 -110.35C129.174 -110.01 129.238 -109.214 128.735 -108.788L127.801 -107.997C127.184 -107.475 126.981 -106.611 127.299 -105.868L128.767 -102.439C128.814 -102.33 128.892 -102.236 128.991 -102.17C129.284 -101.975 129.353 -101.572 129.141 -101.29L128.479 -100.406C128.263 -100.119 128.147 -99.7693 128.147 -99.4101V-96.328C128.147 -96.0769 128.398 -95.9031 128.633 -95.9912C128.984 -96.123 129.277 -95.696 129.027 -95.4155L128.306 -94.6029C128.203 -94.4877 128.147 -94.3391 128.147 -94.1851V-92.6325C128.147 -92.3061 128.295 -91.9974 128.55 -91.7936L129.136 -91.3239C129.23 -91.2493 129.364 -91.2567 129.448 -91.3411C129.641 -91.5343 129.952 -91.2966 129.817 -91.0593L128.882 -89.4221C128.853 -89.3721 128.834 -89.3174 128.825 -89.2606L128.681 -88.3997C128.633 -88.1082 128.608 -87.8131 128.608 -87.5175V-84.8363C128.608 -84.1619 128.784 -83.4992 129.118 -82.9137L129.178 -82.8095C129.41 -82.4022 129.727 -82.0488 130.106 -81.7729L130.784 -81.2794C131.548 -80.7231 131.864 -79.7354 131.565 -78.8381C131.441 -78.465 131.421 -78.0651 131.506 -77.6811L131.654 -77.015C131.775 -76.4699 131.796 -75.9074 131.717 -75.3546L131.395 -73.1724M100.474 58.599L103.326 54.4267C103.421 54.287 103.551 54.174 103.702 54.0983L105.141 53.3781C105.257 53.3202 105.36 53.2404 105.445 53.143L106.931 51.444L107.866 50.1566C108.183 49.7205 107.792 49.1239 107.266 49.2408C106.953 49.3106 106.642 49.1143 106.57 48.8011M106.57 48.8011L106.278 47.5366C106.173 47.0821 105.582 46.9641 105.311 47.3437C105.091 47.652 104.63 47.6445 104.42 47.3293L103.881 46.5193C103.703 46.2527 103.302 46.2869 103.172 46.5797C103.002 46.9609 102.438 46.8701 102.396 46.4551M106.57 48.8011C106.632 49.0733 107.319 49.3523 107.704 49.3749C107.803 49.3807 107.897 49.3415 107.984 49.2919L109.387 48.4895C109.44 48.4591 109.487 48.4186 109.524 48.3701L111.726 45.5049C111.758 45.464 111.794 45.4295 111.838 45.4012C114.089 43.9254 118.557 41.0099 118.923 40.827C119.193 40.692 120.137 40.1372 120.925 39.6684C121.245 39.4783 121.213 39.0066 120.871 38.86C120.534 38.7155 120.497 38.252 120.807 38.0556L126.703 34.3182C126.876 34.2088 127.1 34.2261 127.254 34.3608L128.461 35.418C128.664 35.5961 128.976 35.5618 129.136 35.3435L131.238 32.4759C131.324 32.3573 131.463 32.2872 131.61 32.2872H133.809C133.877 32.2872 133.944 32.3022 134.006 32.3312L137.74 34.0897C137.801 34.1187 137.868 34.1337 137.936 34.1337H140.742C140.934 34.1337 141.106 34.0143 141.174 33.8341L141.612 32.6646C141.693 32.4484 141.602 32.2056 141.399 32.0961L139.64 31.1481C139.292 30.961 139.325 30.4525 139.693 30.3108L141.626 29.5666C141.709 29.5346 141.781 29.4793 141.834 29.4072L143.46 27.1689C143.547 27.0494 143.686 26.9787 143.833 26.9787H144.751C145.131 26.9787 145.348 26.5445 145.12 26.2402L144.472 25.375C144.362 25.2277 144.349 25.0288 144.44 24.869L146.048 22.0542C146.104 21.9556 146.195 21.8812 146.302 21.8453L150.218 20.5388C150.263 20.5238 150.305 20.5021 150.344 20.4742L151.852 19.3764C152.194 19.1277 152.049 18.5883 151.629 18.544L148.616 18.2266C148.503 18.2147 148.399 18.1619 148.323 18.078L146.303 15.8541C146.198 15.7388 146.042 15.6842 145.889 15.7088L140.464 16.5775C140.402 16.5874 140.342 16.61 140.289 16.6438L137.977 18.1165C137.884 18.1757 137.773 18.1996 137.664 18.184L134.958 17.7971C134.75 17.7674 134.548 17.8823 134.467 18.0766L133.541 20.2997C133.485 20.4357 133.367 20.5366 133.223 20.571L128.089 21.8043C127.86 21.8593 127.626 21.7327 127.547 21.5107L126.599 18.8553C126.557 18.7368 126.565 18.6062 126.621 18.4936L126.83 18.0755C126.926 17.883 126.876 17.6496 126.71 17.5128L123.443 14.82C123.242 14.6536 123.218 14.3527 123.392 14.157L124.752 12.626C124.856 12.5089 124.893 12.3468 124.851 12.1958L123.822 8.4873C123.786 8.35796 123.808 8.21939 123.883 8.1077L125.671 5.42378C125.858 5.143 125.69 4.7628 125.357 4.71149L120.344 3.93962C120.178 3.91413 120.04 3.80086 119.982 3.64369L117.842 -2.13782C117.796 -2.26214 117.806 -2.40027 117.868 -2.51699L119.214 -5.01862C119.314 -5.20413 119.276 -5.43375 119.121 -5.57667L116.662 -7.84878C116.501 -7.99713 116.467 -8.23792 116.579 -8.42548L117.584 -10.1025C117.693 -10.2841 117.665 -10.5166 117.515 -10.6664L115.204 -12.9794C115.08 -13.1031 114.898 -13.1462 114.732 -13.091L113.082 -12.5404C112.982 -12.507 112.873 -12.509 112.774 -12.5461L111.381 -13.069C111.201 -13.1365 110.998 -13.0854 110.872 -12.9407L109.911 -11.8422C109.708 -11.61 109.332 -11.6744 109.217 -11.9608C109.113 -12.2214 108.785 -12.3044 108.57 -12.1247L107.928 -11.5891C107.752 -11.4429 107.497 -11.447 107.326 -11.5987L105.943 -12.8287C105.734 -13.015 105.409 -12.973 105.253 -12.7398L104.762 -12.0019C104.676 -11.8735 104.532 -11.7964 104.378 -11.7964H100.383C100.292 -11.7964 100.203 -11.7694 100.127 -11.7188L98.373 -10.5486C98.2447 -10.4629 98.1676 -10.3188 98.1676 -10.1645V-8.10349L97.6206 -11.0233C97.5557 -11.3697 97.1426 -11.5184 96.872 -11.2928L95.2408 -9.93227C94.9877 -9.72121 94.6015 -9.83604 94.5047 -10.1511L93.8578 -12.2553C93.8129 -12.4014 93.8431 -12.5602 93.9384 -12.6795L94.109 -12.8928C94.3506 -13.1951 94.1356 -13.6428 93.7488 -13.6428H86.6962C86.6569 -13.6428 86.6178 -13.6478 86.5798 -13.6577L81.333 -15.0276L79.7661 -15.6156C79.5968 -15.6792 79.4059 -15.6378 79.278 -15.5098L77.9805 -14.2112C77.9112 -14.1418 77.8215 -14.0963 77.7245 -14.0814L75.1115 -13.6791C74.9637 -13.6563 74.836 -13.5632 74.7691 -13.4293L72.9053 -9.69855C72.8393 -9.56646 72.7142 -9.47393 72.5686 -9.44966L70.207 -9.05573C70.0949 -9.03704 69.9937 -8.97759 69.9227 -8.88878L67.3384 -5.6557C67.2906 -5.59593 67.2586 -5.52581 67.2448 -5.45053C67.0818 -4.56369 66.7503 -2.86356 66.5738 -2.33338C66.3931 -1.79093 65.4605 -0.909095 64.9888 -0.511528C64.9691 -0.494924 64.9511 -0.477104 64.9343 -0.457533L63.7458 0.930239C63.6403 1.05335 63.6072 1.2228 63.6584 1.37662L63.9699 2.3121C64.0125 2.43994 63.9972 2.58 63.9279 2.69556L62.7877 4.59744C62.7044 4.73648 62.5542 4.82154 62.3922 4.82154H61.5003C61.2456 4.82154 61.0391 5.02821 61.0391 5.28315V6.76436C61.0391 6.85215 61.0141 6.93812 60.967 7.01218L59.4248 9.43762L58.0777 11.2352C58.0534 11.2676 58.0335 11.3031 58.0185 11.3408L57.6408 12.2857C57.6014 12.3843 57.5293 12.4662 57.4365 12.5178L51.4328 15.856C51.3803 15.8851 51.3341 15.9243 51.2966 15.9711L49.5085 18.2082M102.396 46.4551L102.171 44.1944C102.123 43.7148 101.739 43.3383 101.258 43.3004L94.0574 42.5611C93.8494 42.5447 93.6659 41.7546 93.7218 41.5534L94.3541 38.964C94.4324 38.6818 94.3827 38.3794 94.2181 38.1372L90.7295 33.0025C90.6172 32.8373 90.5572 32.6421 90.5572 32.4423V31.5633C90.5572 31.4318 90.5311 31.3016 90.4806 31.1802L89.671 29.2355M102.396 46.4551L102.172 44.2026C102.123 43.7183 101.735 43.338 101.25 43.2997L94.4405 42.7617C93.8622 42.716 93.4691 42.1537 93.6243 41.5942L94.1345 39.7561C94.3523 38.9715 94.214 38.1307 93.7565 37.4574L91.029 33.443C90.7218 32.9908 90.5574 32.4565 90.5574 31.9095C90.5574 31.5495 90.4862 31.193 90.3478 30.8606L89.671 29.2355M89.671 29.2355C89.513 28.8559 89.6251 28.4175 89.9459 28.1606C90.2984 27.8784 90.3947 27.3822 90.1734 26.9884M90.1734 26.9884L88.6312 24.2444C88.5337 24.071 88.3866 23.9308 88.2088 23.8418L86.7401 23.1069C86.6714 23.0725 86.607 23.0303 86.548 22.9811L85.5299 22.132C85.351 21.9828 85.1256 21.9011 84.8927 21.9011H82.2551M90.1734 26.9884L88.8977 24.7182C88.6268 24.236 88.2177 23.8462 87.7234 23.5988L86.9243 23.1989C86.7334 23.1034 86.5542 22.9861 86.3903 22.8494L86.023 22.5431C85.5257 22.1283 84.8988 21.9011 84.2514 21.9011L82.2551 21.9011M82.2551 21.9011L76.7714 22.3233C76.4501 22.3481 76.1367 22.2156 75.9304 21.9678L75.2673 21.1715C75.1616 21.0444 75.0258 20.9458 74.8724 20.8843L72.9214 20.1033C72.8408 20.071 72.7564 20.0495 72.6703 20.0391L67.1744 19.3791C67.0817 19.3679 66.9911 19.3438 66.9051 19.3074L61.8992 17.1877C61.4154 16.9829 60.8559 17.1895 60.621 17.6597L60.4289 18.0443C60.2413 18.4197 59.8388 18.6372 59.4223 18.5881L56.1959 18.2083M82.2551 21.9011L77.4646 22.27C76.7086 22.3282 75.9712 22.0165 75.4857 21.4335C75.2368 21.1345 74.9174 20.9022 74.5563 20.7577L73.1376 20.1897C72.9137 20.1001 72.679 20.0401 72.4396 20.0114L67.4233 19.4089C67.1657 19.378 66.9137 19.311 66.6748 19.2098L62.1258 17.2836C61.5148 17.0249 60.8081 17.2858 60.5114 17.8797C60.2745 18.3539 59.766 18.6286 59.24 18.5667L56.1959 18.2083M56.1959 18.2083L50.8271 17.5635C50.5726 17.5329 50.3162 17.6017 50.1112 17.7556L44.2157 22.1809C44.0578 22.2994 43.9387 22.4623 43.8735 22.6488L42.4732 26.6529C42.3994 26.864 42.2567 27.0441 42.0681 27.1642L40.1487 28.3867C39.9389 28.5203 39.7866 28.7278 39.722 28.9681L38.2914 34.2861C38.2373 34.4872 38.1216 34.6663 37.9605 34.7981L36.917 35.6526M56.1959 18.2083L51.533 17.6482C50.8257 17.5633 50.1128 17.7546 49.5429 18.1824M43.9735 61.8302L40.8658 54.4988C40.7871 54.3131 40.6539 54.1557 40.4839 54.0474L38.6516 52.8805C38.3741 52.7038 38.0274 52.6756 37.7251 52.8053L36.9417 53.1413C36.7177 53.2374 36.4662 53.2478 36.2349 53.1707L34.8332 52.7031C34.6288 52.6349 34.4079 52.6349 34.2036 52.7031L32.8117 53.1674C32.6731 53.2137 32.5468 53.071 32.6093 52.9389L34.4716 49.0041C34.5027 48.9384 34.5265 48.8694 34.5426 48.7985L35.6467 43.9365C35.6632 43.8641 35.6715 43.79 35.6715 43.7157V40.6006C35.6715 40.446 35.7074 40.2934 35.7765 40.1551L36.3713 38.9645C36.5114 38.6841 36.5114 38.354 36.3713 38.0735L36.0273 37.3848C35.8192 36.9683 35.9272 36.4632 36.2873 36.1683L36.917 35.6526M74.1837 -12.2578L73.5142 -15.6082C73.4997 -15.6806 73.5098 -15.7558 73.5428 -15.8218L74.9658 -18.6702C75.0113 -18.7614 75.0111 -18.8639 74.9733 -18.9511M74.9733 -18.9511C74.9457 -19.0147 74.8981 -19.0701 74.8336 -19.107L68.649 -22.644L63.1143 -24.9521L56.2288 -28.6274C56.207 -28.639 56.1839 -28.6482 56.16 -28.6547L51.6206 -29.8938C51.3875 -29.9574 51.2983 -30.241 51.453 -30.4267L52.8672 -32.1252C53.0628 -32.3601 52.8639 -32.7125 52.5619 -32.666L50.6791 -32.3761C50.5322 -32.3534 50.3881 -32.4314 50.3266 -32.5669L49.3513 -34.7144C49.3052 -34.8157 49.313 -34.9334 49.372 -35.0278L50.306 -36.5235C50.3807 -36.643 50.3717 -36.7968 50.2837 -36.9069L49.5082 -37.8771L48.6132 -39.2206C48.595 -39.248 48.5809 -39.2779 48.5715 -39.3094L47.9039 -41.5367C47.8972 -41.5588 47.8929 -41.5816 47.891 -41.6046L47.671 -44.2468C47.666 -44.3075 47.6777 -44.3684 47.7049 -44.4229L49.719 -48.4545C49.7321 -48.4808 49.7487 -48.5052 49.7683 -48.5271L55.3108 -54.7399C55.4215 -54.864 55.4234 -55.0509 55.3152 -55.1772L54.3074 -56.3539C54.2001 -56.4792 54.201 -56.6644 54.3096 -56.7886L55.6839 -58.3605C55.7173 -58.3988 55.7591 -58.4288 55.806 -58.4484L58.3734 -59.519C58.4557 -59.5533 58.5207 -59.6194 58.5538 -59.7022L59.3463 -61.6849C59.394 -61.8044 59.5065 -61.8855 59.6348 -61.8931L63.1324 -62.099C63.2619 -62.1066 63.3751 -62.1891 63.4221 -62.3101L64.9592 -66.266L66.9954 -70.5681C67.0211 -70.6225 67.0611 -70.6689 67.1112 -70.7023L69.7185 -72.4419C69.773 -72.4783 69.837 -72.4977 69.9025 -72.4977H71.1998C71.3314 -72.4977 71.4506 -72.5755 71.5036 -72.696L73.9355 -78.2278C73.9472 -78.2544 73.9553 -78.2823 73.9597 -78.311L74.4044 -81.2038C74.4109 -81.2464 74.4257 -81.2872 74.4478 -81.3242L75.6955 -83.4054C75.7586 -83.5106 75.7586 -83.642 75.6955 -83.7471L75.1969 -84.579C75.1401 -84.6736 75.1341 -84.7903 75.1807 -84.8903L76.7204 -88.1924L78.5335 -92.7289C78.5544 -92.7811 78.5617 -92.8377 78.5547 -92.8935L78.3465 -94.5607C78.3388 -94.6223 78.3485 -94.6847 78.3744 -94.7411L79.6406 -97.4866C79.6889 -97.5915 79.6794 -97.7139 79.6154 -97.81L77.5631 -100.891C77.4754 -101.023 77.4927 -101.198 77.6046 -101.31L78.1823 -101.888C78.275 -101.981 78.3044 -102.12 78.2573 -102.242L77.2992 -104.735C77.234 -104.905 77.3171 -105.095 77.4856 -105.163L77.9877 -105.364C78.1723 -105.438 78.2509 -105.656 78.1557 -105.831L77.042 -107.875C76.9856 -107.978 76.9882 -108.104 77.0488 -108.205L77.5349 -109.015C77.6008 -109.125 77.5975 -109.264 77.5264 -109.37L76.8217 -110.428C76.7587 -110.523 76.7484 -110.643 76.7946 -110.747L77.5609 -112.473C77.6113 -112.586 77.5942 -112.718 77.5168 -112.815L76.8231 -113.683C76.7584 -113.764 76.7352 -113.871 76.7603 -113.971L77.8735 -118.428L78.5599 -123.923C78.5635 -123.952 78.5709 -123.981 78.582 -124.008L82.5434 -133.699C82.6287 -133.908 82.4856 -134.139 82.2607 -134.156L7.96846 -139.647C7.84491 -139.656 7.73673 -139.733 7.68793 -139.847L7.15412 -141.094C7.10576 -141.207 6.99904 -141.284 6.8767 -141.294L4.55701 -141.487C4.40964 -141.5 4.2882 -141.608 4.25921 -141.753L3.87657 -143.668C3.85776 -143.762 3.79913 -143.844 3.71583 -143.891L0.618387 -145.663L-1.59783 -146.993C-1.65635 -147.029 -1.70261 -147.081 -1.73033 -147.143L-2.56379 -149.02C-2.59385 -149.088 -2.60044 -149.164 -2.58248 -149.236L-2.16909 -150.891C-2.15587 -150.943 -2.15587 -150.999 -2.16909 -151.052L-2.83325 -153.71C-2.83827 -153.731 -2.84518 -153.75 -2.85387 -153.769L-5.59647 -159.716C-5.60424 -159.733 -5.61341 -159.749 -5.62389 -159.765L-8.14687 -163.455C-8.31475 -163.701 -8.69577 -163.618 -8.74743 -163.325L-9.27978 -160.306C-9.29161 -160.239 -9.32376 -160.177 -9.37189 -160.129L-9.75917 -159.742L-11.4714 -157.6C-11.5523 -157.498 -11.567 -157.359 -11.5091 -157.244L-10.2738 -154.771C-10.2393 -154.702 -10.2299 -154.623 -10.2472 -154.548L-10.9122 -151.664L-11.6041 -149.817L-12.0137 -148.177C-12.0451 -148.051 -12.0003 -147.919 -11.899 -147.838L-11.3172 -147.372C-11.1281 -147.22 -11.1595 -146.924 -11.376 -146.815L-11.7646 -146.621C-11.8107 -146.598 -11.8615 -146.586 -11.913 -146.586H-48.6322C-48.6977 -146.586 -48.7617 -146.605 -48.8162 -146.642L-49.89 -147.358C-50.0216 -147.446 -50.1968 -147.428 -50.3087 -147.317L-52.0371 -145.587C-52.131 -145.493 -52.2717 -145.464 -52.395 -145.513L-54.3635 -146.301C-54.4492 -146.336 -54.5168 -146.404 -54.5499 -146.49L-55.5198 -149.014C-55.5901 -149.197 -55.8027 -149.28 -55.9779 -149.192L-56.6998 -148.831C-56.8778 -148.742 -57.0937 -148.828 -57.1606 -149.016L-58.0313 -151.456C-58.1079 -151.671 -58.3731 -151.746 -58.551 -151.603L-59.0444 -151.208C-59.2012 -151.083 -59.4328 -151.124 -59.5361 -151.297L-61.3953 -154.398C-61.4093 -154.421 -61.426 -154.443 -61.4452 -154.462L-62.9334 -155.952C-62.9957 -156.014 -63.08 -156.049 -63.168 -156.049H-71.3363C-71.4731 -156.049 -71.5959 -155.965 -71.6455 -155.837L-73.0765 -152.154C-73.1349 -152.004 -73.2928 -151.917 -73.4508 -151.949L-75.0542 -152.27C-75.2698 -152.313 -75.4669 -152.138 -75.4501 -151.919L-75.2601 -149.447C-75.2555 -149.387 -75.2673 -149.327 -75.2942 -149.273L-76.1102 -147.64C-76.1518 -147.556 -76.2264 -147.494 -76.3158 -147.469L-77.5256 -147.123C-77.6789 -147.079 -77.7794 -146.932 -77.7649 -146.774L-77.5797 -144.734C-77.5673 -144.598 -77.6396 -144.468 -77.7617 -144.407L-78.8052 -143.885C-78.8925 -143.841 -78.9946 -143.838 -79.0843 -143.877L-80.4589 -144.466C-80.5228 -144.494 -80.5937 -144.5 -80.6615 -144.485L-82.5482 -144.066C-82.6036 -144.053 -82.6612 -144.056 -82.7155 -144.072L-84.7893 -144.694C-84.884 -144.723 -84.9864 -144.708 -85.0686 -144.653L-86.8799 -143.444C-86.9647 -143.388 -87.0189 -143.295 -87.0267 -143.193L-87.2347 -140.487C-87.2413 -140.402 -87.2802 -140.322 -87.3436 -140.265L-89.2389 -138.558C-89.3981 -138.415 -89.6495 -138.458 -89.7521 -138.646L-90.8118 -140.59C-90.8842 -140.723 -91.037 -140.79 -91.1836 -140.753L-92.5759 -140.405C-92.7003 -140.374 -92.7956 -140.274 -92.8208 -140.148L-93.1315 -138.593C-93.1808 -138.346 -93.476 -138.242 -93.6692 -138.403L-94.3804 -138.996C-94.5169 -139.11 -94.7187 -139.096 -94.8383 -138.965L-96.6861 -136.93C-96.8174 -136.786 -97.0443 -136.785 -97.1762 -136.929L-99.3061 -139.255C-99.4024 -139.36 -99.5551 -139.392 -99.6854 -139.334L-101.433 -138.557C-101.504 -138.525 -101.584 -138.519 -101.659 -138.541L-102.909 -138.898C-103.055 -138.94 -103.211 -138.878 -103.287 -138.746L-104.727 -136.276C-104.756 -136.226 -104.798 -136.184 -104.849 -136.155L-107.833 -134.449C-107.936 -134.39 -108 -134.28 -108 -134.16V-133.911C-108 -133.763 -107.902 -133.633 -107.759 -133.592L-106.471 -133.224C-106.415 -133.208 -106.356 -133.207 -106.3 -133.221L-104.541 -133.661L-101.543 -134.353L-99.7341 -134.579C-99.7101 -134.582 -99.6865 -134.588 -99.6637 -134.596L-96.6263 -135.682C-96.5276 -135.717 -96.418 -135.704 -96.3307 -135.645L-94.6202 -134.504C-94.4886 -134.416 -94.3134 -134.434 -94.2015 -134.546L-92.8195 -135.929C-92.6767 -136.072 -92.4406 -136.055 -92.3194 -135.893L-90.6461 -133.66C-90.5471 -133.528 -90.5602 -133.343 -90.6769 -133.226L-91.4864 -132.416C-91.5727 -132.33 -91.6047 -132.203 -91.5696 -132.086L-90.9657 -130.071C-90.9455 -130.004 -90.9472 -129.932 -90.9703 -129.866L-92.4868 -125.53C-92.5254 -125.419 -92.5033 -125.297 -92.4286 -125.207L-91.4728 -124.059C-91.4231 -124 -91.3959 -123.924 -91.3959 -123.847V-122.452C-91.3959 -122.386 -91.3765 -122.322 -91.3402 -122.268L-90.1631 -120.501C-90.0754 -120.369 -90.0927 -120.194 -90.2046 -120.082L-90.8724 -119.413C-90.9132 -119.372 -90.9427 -119.322 -90.9579 -119.266L-91.5122 -117.232C-91.5698 -117.02 -91.4109 -116.812 -91.1921 -116.812H-90.9133C-90.6929 -116.812 -90.5337 -116.601 -90.5943 -116.389L-91.2751 -114.004C-91.3356 -113.792 -91.1765 -113.581 -90.9561 -113.581H-90.1952C-89.983 -113.581 -89.8253 -113.384 -89.8714 -113.177L-90.1531 -111.908C-90.1992 -111.7 -90.0415 -111.504 -89.8292 -111.504H-88.7646C-88.5683 -111.504 -88.4149 -111.334 -88.4344 -111.138L-88.6065 -109.416C-88.6199 -109.283 -88.5517 -109.154 -88.4337 -109.091L-85.6558 -107.594C-85.639 -107.584 -85.6215 -107.577 -85.6034 -107.571L-84.3929 -107.167C-84.3003 -107.136 -84.226 -107.066 -84.1898 -106.975L-83.8525 -106.131C-83.8108 -106.027 -83.7194 -105.951 -83.6095 -105.929L-81.6965 -105.546C-81.5651 -105.52 -81.4625 -105.417 -81.4362 -105.286L-81.0575 -103.39C-81.0334 -103.27 -80.9449 -103.173 -80.8274 -103.137L-78.7375 -102.51C-78.7207 -102.505 -78.7035 -102.501 -78.6861 -102.499L-75.4346 -102.065C-75.3216 -102.05 -75.2088 -102.094 -75.1358 -102.181L-74.2508 -103.244C-74.1605 -103.353 -74.0115 -103.392 -73.8794 -103.343L-72.287 -102.745C-72.2658 -102.737 -72.2454 -102.727 -72.2263 -102.715L-68.0497 -100.075C-67.942 -100.007 -67.8048 -100.006 -67.6967 -100.074L-66.3287 -100.93C-66.1662 -101.031 -65.9516 -100.974 -65.8608 -100.805L-64.4374 -98.1599C-64.4221 -98.1314 -64.4027 -98.1053 -64.3798 -98.0825L-62.7144 -96.4156C-62.6255 -96.3267 -62.4941 -96.2956 -62.3749 -96.3354L-60.7343 -96.8827C-60.5923 -96.9301 -60.4363 -96.8765 -60.3533 -96.7519L-59.6699 -95.726C-59.6084 -95.6336 -59.5048 -95.5781 -59.3939 -95.5781H-58.3252C-58.2372 -95.5781 -58.1528 -95.5431 -58.0906 -95.4808L-56.9369 -94.3262C-56.8545 -94.2438 -56.7349 -94.2106 -56.6218 -94.2389L-55.1754 -94.6008C-55.0446 -94.6335 -54.9071 -94.5838 -54.8274 -94.475L-52.4571 -91.2402C-52.4342 -91.2089 -52.4059 -91.1818 -52.3736 -91.1603L-50.4768 -89.8947C-50.3945 -89.8398 -50.2921 -89.8245 -50.1974 -89.8529L-48.1479 -90.4683C-48.0784 -90.4891 -48.004 -90.4866 -47.9361 -90.4611L-46.4165 -89.8908C-46.2844 -89.8412 -46.1354 -89.8807 -46.0451 -89.9891L-45.2754 -90.9135C-45.1505 -91.0635 -44.9239 -91.0738 -44.7859 -90.9357L-43.792 -89.941C-43.7096 -89.8585 -43.5901 -89.8255 -43.4767 -89.8524C-42.8299 -90.0059 -41.8143 -90.2066 -41.8143 -90.0388C-41.8143 -89.8574 -37.5116 -87.7308 -35.2464 -86.6347C-35.1686 -86.5971 -35.11 -86.5312 -35.0804 -86.4499L-34.2453 -84.1514C-34.2187 -84.0781 -34.2187 -83.9977 -34.2453 -83.9244L-35.0763 -81.6372C-35.1083 -81.5492 -35.1017 -81.4518 -35.0581 -81.369L-32.8556 -77.1807C-32.8324 -77.1366 -32.8194 -77.088 -32.8176 -77.0383L-32.6025 -71.2264C-32.5956 -71.0383 -32.746 -70.8821 -32.9341 -70.8821H-35.3358C-35.6179 -70.8821 -35.7713 -70.5521 -35.5896 -70.3361L-32.428 -66.5786C-32.3832 -66.5254 -32.3563 -66.4595 -32.351 -66.3902L-31.6903 -57.7949C-31.6773 -57.6249 -31.5377 -57.4924 -31.3673 -57.4884L-12.1802 -57.0365C-12.1058 -57.0348 -12.0329 -57.0582 -11.9733 -57.1029L-11.3731 -57.5535C-11.241 -57.6526 -11.0561 -57.6395 -10.9394 -57.5226L-10.1821 -56.7647C-10.0703 -56.6528 -10.0529 -56.4774 -10.1407 -56.3457L-10.7614 -55.4139C-10.8491 -55.2822 -10.8317 -55.1068 -10.7199 -54.9949L-10.6392 -54.9141C-10.5292 -54.8041 -10.5104 -54.6324 -10.5939 -54.5011L-11.995 -52.2976C-12.0402 -52.2265 -12.0567 -52.1409 -12.0412 -52.0581L-11.3735 -48.4941L-11.1587 -46.5596C-11.1486 -46.4685 -11.1013 -46.3856 -11.028 -46.3306L-6.69464 -43.0779C-6.5941 -43.0025 -6.45959 -42.9903 -6.34719 -43.0466L-5.84536 -43.2977C-5.70666 -43.3671 -5.53841 -43.3311 -5.44021 -43.211L-3.57544 -40.9299C-3.5472 -40.8954 -3.5262 -40.8555 -3.51371 -40.8126L-1.94215 -35.4199C-1.92654 -35.3663 -1.89768 -35.3176 -1.85824 -35.2781L-0.968771 -34.3879C-0.85201 -34.271 -0.838887 -34.086 -0.937947 -33.9538L-1.43143 -33.2953C-1.44849 -33.2725 -1.46255 -33.2477 -1.47328 -33.2213L-3.9497 -27.1378C-3.97828 -27.0676 -3.98205 -26.9902 -3.96073 -26.9175C-3.72611 -26.1163 -3.35668 -24.6666 -3.53264 -24.4905C-3.7123 -24.3106 -6.53096 -19.1549 -8.02722 -16.3984C-8.09736 -16.2691 -8.07361 -16.1102 -7.9697 -16.0062L-5.46357 -13.498C-5.30601 -13.3403 -5.34544 -13.0751 -5.54203 -12.9702L-8.2885 -11.5042C-8.45957 -11.4129 -8.51631 -11.1948 -8.41146 -11.0316L-6.57371 -8.17049C-6.54537 -8.12637 -6.52789 -8.07615 -6.52267 -8.02396L-6.30367 -5.83217C-6.30121 -5.80768 -6.29606 -5.78355 -6.28828 -5.76019L-4.93334 -1.69197C-4.92206 -1.65811 -4.91632 -1.62265 -4.91632 -1.58697V2.91502C-4.91632 2.95483 -4.92346 2.99433 -4.93743 3.03161L-6.27886 6.61171C-6.29283 6.64899 -6.29998 6.68849 -6.29998 6.72832V11.4998C-6.29998 11.6459 -6.2045 11.7749 -6.0648 11.8174L-1.02707 13.3519C-1.00634 13.3582 -0.985043 13.3625 -0.963484 13.3647L5.85706 14.0473C5.90024 14.0516 5.94386 14.0474 5.98542 14.0349L8.19081 13.3727C8.21591 13.3652 8.24002 13.3547 8.26265 13.3415L10.8212 11.8478C10.9285 11.7851 11.0618 11.7877 11.1666 11.8545L13.5107 13.3474C13.5253 13.3567 13.5407 13.3649 13.5565 13.3718L18.7093 15.614C18.7908 15.6495 18.8547 15.7162 18.8866 15.7993L19.9677 18.6124C19.9823 18.6504 19.9898 18.6908 19.9898 18.7316V20.2143C19.9898 20.2613 19.9998 20.3077 20.019 20.3505L22.0361 24.8366C22.0554 24.8795 22.0653 24.9259 22.0653 24.9729V28.9856C22.0653 29.0321 22.0751 29.078 22.0939 29.1205L22.9355 31.0156C22.9691 31.0913 22.9733 31.1769 22.9471 31.2555L22.2109 33.4659C22.1393 33.6809 22.2992 33.903 22.5257 33.903H27.7819C27.8142 33.903 27.8463 33.8983 27.8773 33.889L32.2889 32.5644C32.3862 32.5352 32.4914 32.5521 32.5745 32.6104L36.917 35.6526M74.9733 -18.9511H75.3285C75.6098 -18.9511 75.8606 -19.1287 75.9542 -19.3943L77.0254 -22.4317C77.119 -22.6973 77.3698 -22.8748 77.6511 -22.8748H78.7693C79.0595 -22.8748 79.3161 -23.0636 79.4027 -23.3409L80.384 -26.4836C80.4014 -26.5394 80.4261 -26.5927 80.4575 -26.642L81.829 -28.799C81.9508 -28.9905 82.1619 -29.1065 82.3888 -29.1065H87.3519C87.4869 -29.1065 87.6187 -29.1477 87.7296 -29.2246L90.074 -30.849C90.3498 -31.0401 90.7247 -30.9951 90.9476 -30.7441L91.9872 -29.5737C92.2203 -29.3112 92.6172 -29.2757 92.8931 -29.4927L95.5694 -31.5972C95.6101 -31.6292 95.6544 -31.6563 95.7013 -31.678L98.4659 -32.9551C98.5725 -33.0043 98.6901 -33.0243 98.8069 -33.0132L103.415 -32.574C103.452 -32.5704 103.49 -32.5636 103.526 -32.5536L108.284 -31.2549C108.451 -31.2093 108.63 -31.2309 108.781 -31.3151L116.255 -35.4705C116.58 -35.6513 116.693 -36.0641 116.506 -36.3857L115.46 -38.1796C115.323 -38.4149 115.343 -38.7102 115.511 -38.9245L117.118 -40.971C117.42 -41.3555 117.217 -41.9236 116.74 -42.0297L113.002 -42.8612C112.44 -42.986 112.292 -43.7179 112.761 -44.0511L118.304 -47.988C118.536 -48.1526 118.638 -48.448 118.552 -48.7193C117.719 -51.3656 116.875 -52.6358 115.229 -54.0995C114.973 -54.3271 114.92 -54.7103 115.115 -54.9921L116.552 -57.0697C116.726 -57.32 116.707 -57.656 116.506 -57.8851L115.857 -58.6277C115.554 -58.9748 115.687 -59.518 116.117 -59.6844L121.662 -61.8329C122.041 -61.9795 122.2 -62.429 121.999 -62.7817L119.881 -66.4905C119.726 -66.7632 119.782 -67.1078 120.017 -67.3164L121.219 -68.3859C121.483 -68.6207 121.517 -69.0212 121.296 -69.2972L120.913 -69.7769C120.819 -69.8947 120.767 -70.041 120.767 -70.1918V-71.8779C120.767 -72.31 121.173 -72.627 121.592 -72.5222L124.555 -71.7808C124.974 -71.676 125.38 -71.993 125.38 -72.4251V-74.7419C125.38 -75.344 126.116 -75.6354 126.527 -75.1962L128.562 -73.0242C128.732 -72.8426 128.989 -72.7715 129.228 -72.8399L130.801 -73.2897C131.325 -73.4395 131.796 -72.9286 131.605 -72.418L131.235 -71.4304C131.029 -70.8807 131.585 -70.3535 132.122 -70.5888L134.374 -71.5745L138.755 -73.6517L143.528 -76.3813C143.574 -76.4079 143.618 -76.4401 143.656 -76.477L148.249 -80.8542C148.372 -80.9719 148.536 -81.0374 148.706 -81.0374H155.618C155.985 -81.0374 156.282 -80.7401 156.282 -80.3733V-77.2815C156.282 -77.0362 156.417 -76.8109 156.633 -76.6955L159.455 -75.1891C159.635 -75.0928 159.85 -75.0851 160.037 -75.1682L163.584 -76.746C163.777 -76.8321 164 -76.8205 164.184 -76.7148L173.003 -71.6398C173.078 -71.5967 173.16 -71.5686 173.246 -71.5572L176.166 -71.1675C176.401 -71.1362 176.576 -70.9363 176.576 -70.6998C176.576 -70.3545 176.934 -70.1262 177.246 -70.2722L179.623 -71.3824C179.871 -71.4982 180.165 -71.4498 180.363 -71.2605L185.134 -66.6929C185.265 -66.5677 185.339 -66.3943 185.339 -66.213V-64.3913C185.339 -64.0245 185.636 -63.7271 186.002 -63.7271H187.537C187.609 -63.7271 187.679 -63.7386 187.747 -63.7612L190.868 -64.8025C191.02 -64.8532 191.186 -64.8472 191.333 -64.7855L193.871 -63.7271L200.506 -60.9797C200.541 -60.9649 200.576 -60.9471 200.608 -60.9263L202.442 -59.7584C202.786 -59.5396 202.853 -59.0654 202.584 -58.7594L198.088 -53.6459C198.044 -53.5967 198.009 -53.5415 197.982 -53.4819L197.047 -51.4235C196.94 -51.1886 196.99 -50.912 197.173 -50.7295C197.528 -50.3735 197.333 -49.7639 196.837 -49.6811L195.656 -49.4842C195.41 -49.4432 195.208 -49.2673 195.133 -49.0291L193.94 -45.2506C193.896 -45.109 193.9 -44.9564 193.952 -44.8174L194.52 -43.3001C194.549 -43.2244 194.591 -43.1545 194.644 -43.0939L197.856 -39.4502C197.963 -39.3289 198.022 -39.1726 198.022 -39.0108V-37.8488C198.022 -37.6953 197.97 -37.5539 197.883 -37.4414M146.056 15.7031L148.266 14.1809C148.38 14.0983 148.516 14.0538 148.657 14.0538H151.46C151.596 14.0538 151.729 14.0119 151.841 13.9338L153.804 12.5582C153.916 12.4801 154.049 12.4382 154.185 12.4382H156.272C156.427 12.4382 156.578 12.3837 156.697 12.2843L157.658 11.4829C157.809 11.357 158.008 11.3045 158.201 11.3397L160.231 11.7092C160.363 11.733 160.498 11.7168 160.62 11.6626L162.264 10.9314C162.42 10.8616 162.598 10.8554 162.76 10.9142L164.805 11.6584C164.959 11.7147 165.129 11.7115 165.281 11.6496L172.362 8.77069C172.404 8.75383 172.443 8.73281 172.481 8.70796L174.205 7.55767C174.389 7.4345 174.5 7.22712 174.5 7.00507V3.80578C174.5 3.71467 174.519 3.62452 174.555 3.54097L176.756 -1.5252C176.789 -1.60161 176.836 -1.67109 176.895 -1.73002L178.382 -3.21761C178.407 -3.24347 178.431 -3.27143 178.452 -3.3012L179.45 -4.69892C179.53 -4.81155 179.573 -4.94651 179.573 -5.08493V-8.79714C179.573 -9.07398 179.745 -9.32177 180.004 -9.41898L181.306 -9.9075C181.38 -9.93548 181.459 -9.9498 181.539 -9.9498H184.453C184.712 -9.9498 184.947 -10.1004 185.056 -10.3356L186.191 -12.7979C186.237 -12.8979 186.307 -12.9848 186.395 -13.0509L186.918 -13.4434C187.085 -13.5688 187.184 -13.7657 187.184 -13.9747V-15.6982C187.184 -15.8608 187.243 -16.0179 187.351 -16.1394L188.949 -17.9387C189.002 -17.9977 189.043 -18.0656 189.072 -18.1392L190.476 -21.7521C190.576 -22.0108 190.505 -22.3048 190.298 -22.4892L188.639 -23.9654C188.591 -24.0075 188.55 -24.0561 188.517 -24.1098L187.239 -26.1557C186.909 -26.6836 187.422 -27.3346 188.012 -27.1377L189.281 -26.7141C189.545 -26.6261 189.836 -26.712 190.009 -26.9293L190.242 -27.2204C190.466 -27.5 190.427 -27.9065 190.156 -28.1395L189.26 -28.9077C189.113 -29.0339 189.029 -29.2181 189.029 -29.412V-30.7073C189.029 -30.8658 188.972 -31.0191 188.869 -31.1395L187.897 -32.274C187.741 -32.456 187.696 -32.7079 187.777 -32.9332L188.409 -34.6703C188.504 -34.9327 188.753 -35.1074 189.032 -35.1074H191.93C192.077 -35.1074 192.17 -35.2653 192.098 -35.3938L191.914 -35.7264C191.821 -35.893 192.049 -36.0495 192.171 -35.9031C192.221 -35.8437 192.306 -35.8292 192.372 -35.869L194.406 -37.09C194.509 -37.152 194.627 -37.1847 194.747 -37.1847H197.359C197.572 -37.1847 197.762 -37.2852 197.883 -37.4414M197.883 -37.4414L204.793 -33.0406C205.008 -32.9036 205.085 -32.6256 204.963 -32.4016C204.799 -32.1014 204.602 -31.7681 204.48 -31.6454C204.306 -31.4719 203.712 -30.3336 203.386 -29.6863C203.347 -29.6089 203.329 -29.5226 203.334 -29.4361L203.554 -25.4726C203.556 -25.4335 203.563 -25.3947 203.574 -25.3571L204.886 -20.9794C204.921 -20.8623 204.912 -20.7364 204.861 -20.6256L203.41 -17.5142C203.356 -17.3994 203.261 -17.3094 203.144 -17.2624L201.179 -16.4759C201.076 -16.4347 200.99 -16.3603 200.934 -16.2644L199.455 -13.7268C199.423 -13.6713 199.401 -13.61 199.392 -13.5463L198.982 -10.6698C198.959 -10.508 198.858 -10.3678 198.712 -10.2947L197.746 -9.81128C197.628 -9.75221 197.538 -9.64853 197.495 -9.52379C197.321 -9.02646 197.031 -8.26487 196.869 -8.10339C196.722 -7.95632 196.663 -7.01859 196.645 -6.29314C196.638 -6.01814 196.416 -5.79535 196.141 -5.79535H194.92C194.613 -5.79535 194.379 -5.51898 194.429 -5.21537L194.678 -3.72437C194.734 -3.38419 194.437 -3.09071 194.098 -3.15241L192.674 -3.41138C192.434 -3.45514 192.197 -3.31772 192.116 -3.0871L190.9 0.360136C190.883 0.410618 190.857 0.457905 190.824 0.500161L189.313 2.44378M197.883 -37.4414L197.561 -37.6463M145.212 26.7481H148.486C148.915 26.7481 149.143 26.2403 148.858 25.919L148.18 25.1566C147.963 24.9116 148.037 24.5268 148.33 24.3802L150.63 23.2291C150.834 23.1269 151.082 23.1769 151.23 23.3505L152.108 24.3756C152.257 24.5491 152.505 24.6004 152.7 24.4803C153.014 24.2863 153.384 24.0092 153.514 23.7476C153.681 23.4135 156.126 22.8022 157.331 22.2899C157.533 22.2039 157.772 22.2385 157.927 22.394L159.43 23.8983C159.608 24.0759 159.889 24.0935 160.088 23.9393L161.682 22.6985C161.769 22.6305 161.876 22.5936 161.987 22.5936H163.167C163.569 22.5936 163.805 22.14 163.574 21.8099L162.798 20.7006C162.639 20.4725 162.697 20.1579 162.928 20.0021L167.441 16.9531C167.941 16.6155 168.498 17.2915 168.071 17.7181L165.271 20.5204C165.134 20.6585 165.089 20.8646 165.157 21.0475L165.59 22.2027C165.675 22.4288 165.91 22.5615 166.147 22.5176L171.867 21.4574C171.931 21.4456 171.996 21.4464 172.059 21.4595L177.202 22.532C177.384 22.5698 177.572 22.5035 177.689 22.3598L179.226 20.4799C179.412 20.2521 179.361 19.9133 179.117 19.75L177.979 18.9911C177.726 18.822 177.682 18.467 177.887 18.2415L182.021 13.6907C182.079 13.6262 182.154 13.5782 182.237 13.5515L188.488 11.5406C188.54 11.5236 188.59 11.498 188.634 11.4648L189.21 11.0328C189.378 10.9067 189.449 10.6886 189.387 10.4878L188.589 7.89372C188.575 7.84626 188.567 7.79688 188.567 7.74722V5.9019C188.567 5.79971 188.599 5.69999 188.657 5.61627L189.958 3.75667C190.089 3.56887 190.076 3.31558 189.925 3.14304L189.313 2.44378M189.313 2.44378L188.716 1.76051C188.622 1.65242 188.485 1.59042 188.342 1.59042H186.492C186.139 1.59042 183.368 0.746151 181.849 0.268656C181.721 0.22825 181.615 0.137507 181.555 0.0168972L179.343 -4.41048M189.313 2.44378L189.259 2.51359M88.0207 98.9895C91.4015 94.8064 93.0363 91.9366 99.216 89.6485C99.4146 89.575 99.5488 89.3862 99.5595 89.1746C99.681 86.768 101.105 82.0873 102.088 80.4075C102.231 80.1625 102.365 79.9813 102.485 79.8804L102.491 79.8751C102.53 79.8425 102.569 79.8091 102.601 79.7701C104.641 77.2812 104.436 75.1712 102.156 73.9464C101.823 73.7681 101.743 73.3031 102.03 73.0577L102.566 72.5977C102.799 72.3978 102.794 72.0389 102.576 71.8229C101.907 71.1606 101.606 70.5156 101.402 69.2549C101.398 69.2292 101.396 69.2027 101.396 69.1766V68.2126C101.396 68.1142 101.367 68.0181 101.313 67.9363L100.583 66.8412C100.513 66.7357 100.486 66.607 100.506 66.4819C100.794 64.7238 100.786 64.2217 102.04 63.0296C102.071 62.9998 102.1 62.9652 102.122 62.9281C102.619 62.1075 102.668 61.5501 102.567 60.5992C102.556 60.4991 102.514 60.4047 102.448 60.3289L101.084 58.7689C100.989 58.6608 100.853 58.5988 100.709 58.5988H94.872C94.7657 58.5988 94.6623 58.6328 94.5767 58.6959L91.0553 61.2928C90.627 61.6087 90.039 61.5928 89.6282 61.2543L86.5744 58.7373C86.4673 58.649 86.3282 58.6095 86.1907 58.6282L81.5784 59.2577C81.4649 59.2732 81.4068 59.4022 81.4703 59.4975C81.5585 59.6299 81.4142 59.7935 81.272 59.7223L79.3179 58.7445C79.1411 58.656 78.9286 58.6806 78.7767 58.8073L75.0981 61.8754C74.9607 61.99 74.7723 62.022 74.6048 61.9591L73.2341 61.4447C73.1045 61.3961 72.9605 61.4036 72.8368 61.4656L71.0696 62.3499C70.8666 62.4515 70.758 62.6777 70.8055 62.8998L71.3258 65.3295C71.3778 65.5727 71.2427 65.817 71.0092 65.902L69.2084 66.5573C69.0113 66.6291 68.7903 66.5694 68.656 66.4081L67.876 65.4713C67.7815 65.3578 67.6414 65.2921 67.4937 65.2921H62.5796C62.4775 65.2921 62.3778 65.2607 62.2942 65.2021L60.2451 63.7665C60.1615 63.7079 60.0618 63.6765 59.9597 63.6765H55.1858C55.0926 63.6765 55.0012 63.6502 54.9221 63.6008L53.3629 62.6255C53.257 62.5592 53.1301 62.5352 53.0074 62.5583L49.6973 63.1794C49.5758 63.2022 49.4501 63.1789 49.3448 63.1141L46.7302 61.5038C46.5924 61.4189 46.422 61.4064 46.2733 61.4702L45.1301 61.9605C44.9832 62.0235 44.815 62.0121 44.678 61.9298L44.2995 61.7025C44.0188 61.534 43.6548 61.6778 43.5649 61.9928L42.8586 64.4668C42.8338 64.5537 42.8335 64.6459 42.8556 64.7336C43.1625 65.9519 43.0291 66.6283 42.636 67.7061C42.6062 67.7879 42.5976 67.8761 42.6119 67.962L42.7994 69.0882C42.8134 69.1719 42.8057 69.2577 42.7772 69.3376L41.6676 72.447M88.3 98.7627C87.2979 100.476 84.3282 105.662 77.8737 117.685C73.7227 124.378 58.5023 130.841 58.0411 134.995C57.614 138.842 53.723 144.846 46.2888 151.228C45.7526 151.688 44.9726 151.153 45.196 150.482C45.2924 150.193 45.1929 149.874 44.949 149.691L44.8756 149.636C44.6086 149.435 44.4876 149.094 44.5685 148.77L45.3099 145.802C45.3411 145.677 45.3429 145.547 45.3149 145.421L45.0367 144.168C44.9541 143.796 45.135 143.415 45.4754 143.245L47.5006 142.232C47.6079 142.178 47.7024 142.101 47.7773 142.008L50.1924 138.986C50.3184 138.829 50.2759 138.596 50.1025 138.493L44.3484 135.081C44.2533 135.024 44.1705 134.949 44.1047 134.861L39.6935 128.9C39.6266 128.81 39.542 128.734 39.4449 128.678L34.1693 125.598C34.0952 125.554 34.0282 125.5 33.9707 125.436L32.1284 123.387C32.0324 123.28 31.9103 123.2 31.7741 123.155L25.961 121.216C25.8262 121.171 25.7052 121.092 25.6095 120.986L21.6005 116.573C21.3346 116.28 20.8991 116.216 20.56 116.419L16.7821 118.688C16.6716 118.754 16.5309 118.675 16.5309 118.546V116.431C16.5309 116.2 16.4351 115.98 16.2664 115.823L6.92948 107.13C6.73201 106.946 6.45757 106.87 6.19365 106.926L2.23292 107.76L-1.3026 108.94C-1.46554 108.994 -1.5935 108.795 -1.47663 108.669L1.07986 105.914L3.61659 103.606L8.69006 98.0665L11.6324 95.3482C11.6694 95.314 11.7032 95.2766 11.7334 95.2363L13.0717 93.4504L14.686 91.604L16.2476 90.2364C16.4276 90.0788 16.5309 89.851 16.5309 89.6117V89.296C16.5309 88.9136 16.8406 88.6035 17.2227 88.6035C17.6048 88.6035 17.9146 88.2935 17.9146 87.9111V87.8674C17.9146 87.4124 18.3305 87.0712 18.7763 87.1604L18.825 87.1701C19.393 87.2838 19.8432 86.694 19.5842 86.1754C19.4225 85.8518 19.5353 85.4581 19.8438 85.2694L23.2463 83.1884C23.3789 83.1073 23.4861 82.9905 23.5556 82.8513L24.0596 81.8425C24.1133 81.7351 24.1896 81.6405 24.2833 81.5655L25.0669 80.9381C25.214 80.8203 25.3968 80.7562 25.5851 80.7562H26.6787C26.829 80.7562 26.9765 80.7153 27.1054 80.6379L28.8118 79.6132C29.0617 79.4632 29.2146 79.1929 29.2146 78.9013V78.2282C29.2146 77.8224 29.5077 77.476 29.9077 77.4093L31.7924 77.0949C31.9171 77.0741 32.0353 77.0251 32.1382 76.9516L33.4451 76.0173C33.5446 75.9462 33.6585 75.898 33.7788 75.8761L35.7722 75.5133C36.002 75.4715 36.2035 75.3347 36.3272 75.1366L37.0423 73.9914C37.1939 73.7487 37.4597 73.6013 37.7457 73.6013H38.1879C38.3516 73.6013 38.5117 73.5528 38.648 73.4618L40.2028 72.4245C40.401 72.2922 40.6464 72.2516 40.8766 72.3131L43.6536 73.0542C43.8591 73.1091 44.0778 73.0828 44.2646 72.9809L45.8132 72.1355C46.1766 71.9371 46.6307 72.1159 46.7616 72.5089C46.8776 72.8573 47.2539 73.0455 47.6019 72.9294L50.5994 71.9294C50.9164 71.8236 51.2659 71.9186 51.486 72.1703L52.5462 73.383C52.6697 73.5243 52.8375 73.6196 53.0221 73.6532L55.2001 74.0495C55.2491 74.0584 55.2988 74.0629 55.3485 74.0629H58.2066C58.2499 74.0629 58.2932 74.0663 58.336 74.073L62.3869 74.7132C62.5601 74.7405 62.7201 74.8221 62.844 74.9462L63.6109 75.7136C63.7378 75.8407 63.9024 75.923 64.0801 75.9484L66.8632 76.3464C66.9765 76.3625 67.0852 76.402 67.1825 76.4623L71.7844 79.3135C71.8464 79.3519 71.9031 79.3983 71.9529 79.4516L75.337 83.0642L78.5829 87.1791C78.7194 87.3522 78.9192 87.4638 79.1381 87.4893L88.146 88.5376C88.3987 88.567 88.5257 88.8585 88.3752 89.0638L86.2901 91.9095C86.2149 92.0122 86.1643 92.1308 86.1422 92.2562L85.5223 95.7717C85.4991 95.9035 85.5571 96.0364 85.6696 96.1087L88.0305 97.6277C88.4096 97.8717 88.5277 98.3734 88.3 98.7627Z" stroke="url(#paint0_linear)" stroke-width="2"/>
<path fill-rule="evenodd" clip-rule="evenodd" d="M56.5001 73.8154C59.5378 73.8154 62.0003 71.3943 62.0003 68.4077C62.0003 65.4211 59.5378 63 56.5001 63C53.4625 63 51 65.4211 51 68.4077C51 71.3943 53.4625 73.8154 56.5001 73.8154ZM56.5001 70.9036C57.0191 70.9036 57.5018 70.7504 57.9038 70.4876C58.5878 70.0405 59.0387 69.2758 59.0387 68.4077C59.0387 67.0293 57.902 65.9118 56.5001 65.9118C55.0983 65.9118 53.9616 67.0293 53.9616 68.4077C53.9616 69.2758 54.4125 70.0405 55.0965 70.4876C55.4985 70.7504 55.9812 70.9036 56.5001 70.9036Z" fill="#221E1F"/>
<path fill-rule="evenodd" clip-rule="evenodd" d="M51.4231 70.4876L56.5001 80.4711L61.5772 70.4876H57.9038C57.5018 70.7504 57.0191 70.9036 56.5001 70.9036C55.9812 70.9036 55.4985 70.7504 55.0965 70.4876H51.4231Z" fill="#221E1F"/>
<path fill-rule="evenodd" clip-rule="evenodd" d="M102.5 21.8154C105.538 21.8154 108 19.3943 108 16.4077C108 13.4211 105.538 11 102.5 11C99.4625 11 97 13.4211 97 16.4077C97 19.3943 99.4625 21.8154 102.5 21.8154ZM102.5 18.9036C103.019 18.9036 103.502 18.7504 103.904 18.4876C104.588 18.0405 105.039 17.2758 105.039 16.4077C105.039 15.0293 103.902 13.9118 102.5 13.9118C101.098 13.9118 99.9616 15.0293 99.9616 16.4077C99.9616 17.2758 100.412 18.0405 101.096 18.4876C101.499 18.7504 101.981 18.9036 102.5 18.9036Z" fill="#221E1F"/>
<path fill-rule="evenodd" clip-rule="evenodd" d="M97.4231 18.4876L102.5 28.4711L107.577 18.4876H103.904C103.502 18.7504 103.019 18.9036 102.5 18.9036C101.981 18.9036 101.499 18.7504 101.096 18.4876H97.4231Z" fill="#221E1F"/>
<path fill-rule="evenodd" clip-rule="evenodd" d="M91.5001 80.8154C94.5378 80.8154 97.0003 78.3943 97.0003 75.4077C97.0003 72.4211 94.5378 70 91.5001 70C88.4625 70 86 72.4211 86 75.4077C86 78.3943 88.4625 80.8154 91.5001 80.8154ZM91.5001 77.9036C92.0191 77.9036 92.5018 77.7504 92.9038 77.4876C93.5878 77.0405 94.0387 76.2758 94.0387 75.4077C94.0387 74.0293 92.902 72.9118 91.5001 72.9118C90.0983 72.9118 88.9616 74.0293 88.9616 75.4077C88.9616 76.2758 89.4125 77.0405 90.0965 77.4876C90.4985 77.7504 90.9812 77.9036 91.5001 77.9036Z" fill="#221E1F"/>
<path fill-rule="evenodd" clip-rule="evenodd" d="M86.4231 77.4876L91.5001 87.4711L96.5772 77.4876H92.9038C92.5018 77.7504 92.0191 77.9036 91.5001 77.9036C90.9812 77.9036 90.4985 77.7504 90.0965 77.4876H86.4231Z" fill="#221E1F"/>
<path fill-rule="evenodd" clip-rule="evenodd" d="M30.5001 97.8154C33.5378 97.8154 36.0003 95.3943 36.0003 92.4077C36.0003 89.4211 33.5378 87 30.5001 87C27.4625 87 25 89.4211 25 92.4077C25 95.3943 27.4625 97.8154 30.5001 97.8154ZM30.5001 94.9036C31.0191 94.9036 31.5018 94.7504 31.9038 94.4876C32.5878 94.0405 33.0387 93.2758 33.0387 92.4077C33.0387 91.0293 31.902 89.9118 30.5001 89.9118C29.0983 89.9118 27.9616 91.0293 27.9616 92.4077C27.9616 93.2758 28.4125 94.0405 29.0965 94.4876C29.4985 94.7504 29.9812 94.9036 30.5001 94.9036Z" fill="#221E1F"/>
<path fill-rule="evenodd" clip-rule="evenodd" d="M25.4231 94.4876L30.5001 104.471L35.5772 94.4876H31.9038C31.5018 94.7504 31.0191 94.9036 30.5001 94.9036C29.9812 94.9036 29.4985 94.7504 29.0965 94.4876H25.4231Z" fill="#221E1F"/>
<path fill-rule="evenodd" clip-rule="evenodd" d="M51.5001 27.8154C54.5378 27.8154 57.0003 25.3943 57.0003 22.4077C57.0003 19.4211 54.5378 17 51.5001 17C48.4625 17 46 19.4211 46 22.4077C46 25.3943 48.4625 27.8154 51.5001 27.8154ZM51.5001 24.9036C52.0191 24.9036 52.5018 24.7504 52.9038 24.4876C53.5878 24.0405 54.0387 23.2758 54.0387 22.4077C54.0387 21.0293 52.902 19.9118 51.5001 19.9118C50.0983 19.9118 48.9616 21.0293 48.9616 22.4077C48.9616 23.2758 49.4125 24.0405 50.0965 24.4876C50.4985 24.7504 50.9812 24.9036 51.5001 24.9036Z" fill="#221E1F"/>
<path fill-rule="evenodd" clip-rule="evenodd" d="M46.4231 24.4876L51.5001 34.4711L56.5772 24.4876H52.9038C52.5018 24.7504 52.0191 24.9036 51.5001 24.9036C50.9812 24.9036 50.4985 24.7504 50.0965 24.4876H46.4231Z" fill="#221E1F"/>
</g>
<defs>
<linearGradient id="paint0_linear" x1="61.5" y1="12.2" x2="61.5" y2="151.4" gradientUnits="userSpaceOnUse">
<stop offset="0.0411502" stop-color="#221E1F" stop-opacity="0"/>
<stop offset="1" stop-color="#221E1F" stop-opacity="0.51"/>
</linearGradient>
<clipPath id="clip0">
<rect width="153" height="153" fill="white"/>
</clipPath>
</defs>
</svg>
