<svg width="115" height="109" viewBox="0 0 115 109" fill="none" xmlns="http://www.w3.org/2000/svg">
<g opacity="0.3">
<path fill-rule="evenodd" clip-rule="evenodd" d="M0.316668 76.8713L23.0213 54.6736L24.5503 56.1685L1.84568 78.3661C1.42345 78.7789 0.738893 78.7789 0.316668 78.3661C-0.105556 77.9533 -0.105556 77.2841 0.316668 76.8713ZM11.1915 85.038L29.5714 67.0685L31.1004 68.5634L12.7205 86.5329C12.2983 86.9457 11.6137 86.9457 11.1915 86.5329C10.7693 86.1201 10.7693 85.4508 11.1915 85.038ZM29.2772 84.3054L57.6138 56.721L59.1429 58.2158L30.8062 85.8003C30.384 86.2131 29.6994 86.2131 29.2772 85.8003C28.855 85.3875 28.855 84.7182 29.2772 84.3054ZM27.1772 102.9L42.9649 87.34L44.4939 88.8349L28.7063 104.395C28.284 104.808 27.5995 104.808 27.1772 104.395C26.755 103.982 26.755 103.313 27.1772 102.9ZM37.0766 107.195L63.5653 81.2982L65.0943 82.7931L38.6056 108.69C38.1834 109.103 37.4988 109.103 37.0766 108.69C36.6544 108.278 36.6544 107.608 37.0766 107.195Z" fill="white"/>
<path fill-rule="evenodd" clip-rule="evenodd" d="M71.1886 43.8971H21.4434V93.7523H71.1886V43.8971ZM72.6886 96.7523H18.4434V42.3971L60.7547 0H115V54.3552L72.6886 96.7523ZM74.1886 91.0023L112 53.1143V5.12955L74.1886 43.0175V91.0023ZM109.887 3L72.0664 40.8971H49.1821L87.0026 3H109.887ZM82.7642 3H61.9991L24.1787 40.8971H44.9438L82.7642 3Z" fill="url(#paint0_linear)"/>
</g>
<defs>
<linearGradient id="paint0_linear" x1="115.048" y1="1.36859e-06" x2="17.2183" y2="95.4972" gradientUnits="userSpaceOnUse">
<stop stop-color="white" stop-opacity="0"/>
<stop offset="1" stop-color="white"/>
</linearGradient>
</defs>
</svg>
