<svg width="155" height="155" viewBox="0 0 155 155" fill="none" xmlns="http://www.w3.org/2000/svg">
<g opacity="0.4">
<path d="M77.5 118.224V137.254M77.5 137.254C72.8985 137.254 69.1683 141.003 69.1683 145.627C69.1683 150.251 72.8985 154 77.5 154C82.1015 154 85.8317 150.251 85.8317 145.627C85.8317 141.003 82.1015 137.254 77.5 137.254ZM17.6634 96.9104H36.599M17.6634 96.9104C17.6634 101.535 13.9331 105.284 9.33168 105.284C4.73022 105.284 1 101.535 1 96.9104C1 92.2861 4.73022 88.5373 9.33168 88.5373C13.9331 88.5373 17.6634 92.2861 17.6634 96.9104ZM118.401 55.806H137.337M137.337 55.806C137.337 60.4303 141.067 64.1791 145.668 64.1791C150.27 64.1791 154 60.4303 154 55.806C154 51.1816 150.27 47.4328 145.668 47.4328C141.067 47.4328 137.337 51.1816 137.337 55.806ZM137.337 17.7463H77.5V36.5858M137.337 17.7463C137.337 22.3706 141.067 26.1194 145.668 26.1194C150.27 26.1194 154 22.3706 154 17.7463C154 13.1219 150.27 9.37313 145.668 9.37313C141.067 9.37313 137.337 13.1219 137.337 17.7463ZM118.401 96.9104H137.147V137.254M37.1671 55.806H18.4208V16.9851M41.8387 118.224H113.161C116.055 118.224 118.401 115.866 118.401 112.958V41.2807C118.401 38.3725 116.055 36.0149 113.161 36.0149H41.8387C38.9449 36.0149 36.599 38.3725 36.599 41.2807V112.958C36.599 115.866 38.9449 118.224 41.8387 118.224ZM145.668 145.627C145.668 150.251 141.938 154 137.337 154C132.735 154 129.005 150.251 129.005 145.627C129.005 141.003 132.735 137.254 137.337 137.254C141.938 137.254 145.668 141.003 145.668 145.627ZM26.7525 9.37313C26.7525 13.9975 23.0223 17.7463 18.4208 17.7463C13.8193 17.7463 10.0891 13.9975 10.0891 9.37313C10.0891 4.74878 13.8193 1 18.4208 1C23.0223 1 26.7525 4.74878 26.7525 9.37313Z" stroke="url(#paint0_linear)" stroke-width="2"/>
<rect x="60.1372" y="59.3706" width="34.726" height="34.9137" rx="1.5" stroke="#221E1F" stroke-width="3"/>
</g>
<defs>
<linearGradient id="paint0_linear" x1="77.5" y1="1" x2="77.5" y2="154" gradientUnits="userSpaceOnUse">
<stop stop-color="#221E1F" stop-opacity="0"/>
<stop offset="1" stop-color="#221E1F" stop-opacity="0.51"/>
</linearGradient>
</defs>
</svg>
