<svg width="149" height="109" viewBox="0 0 149 109" fill="none" xmlns="http://www.w3.org/2000/svg">
<path fill-rule="evenodd" clip-rule="evenodd" d="M105.491 106.027C109.514 106.027 112.762 102.8 112.762 98.8343C112.762 94.8689 109.514 91.6412 105.491 91.6412C101.469 91.6412 98.2209 94.8689 98.2209 98.8343C98.2209 102.8 101.469 106.027 105.491 106.027ZM105.491 109C110.846 109 115.244 104.938 115.714 99.7558C115.741 99.4523 115.755 99.1449 115.755 98.8343C115.755 98.1316 115.683 97.4456 115.546 96.7831C114.588 92.1519 110.451 88.6685 105.491 88.6685C100.532 88.6685 96.3943 92.1519 95.4363 96.7831C95.2992 97.4456 95.2273 98.1316 95.2273 98.8343C95.2273 99.1449 95.2413 99.4523 95.2689 99.7558C95.7391 104.938 100.136 109 105.491 109Z" fill="url(#paint0_linear)"/>
<path fill-rule="evenodd" clip-rule="evenodd" d="M54.1712 106.027C58.1938 106.027 61.4415 102.8 61.4415 98.8343C61.4415 94.8689 58.1938 91.6412 54.1712 91.6412C50.1486 91.6412 46.9008 94.8689 46.9008 98.8343C46.9008 102.8 50.1486 106.027 54.1712 106.027ZM54.1712 109C59.5262 109 63.9234 104.938 64.3936 99.7558C64.4211 99.4523 64.4352 99.1449 64.4352 98.8343C64.4352 98.1316 64.3632 97.4456 64.2262 96.7831C63.2681 92.1519 59.1304 88.6685 54.1712 88.6685C48.5025 88.6685 43.9072 93.2199 43.9072 98.8343C43.9072 104.449 48.5025 109 54.1712 109Z" fill="url(#paint1_linear)"/>
<path fill-rule="evenodd" clip-rule="evenodd" d="M32.5027 106.027C36.5253 106.027 39.7731 102.8 39.7731 98.8343C39.7731 94.8689 36.5253 91.6412 32.5027 91.6412C28.4801 91.6412 25.2324 94.8689 25.2324 98.8343C25.2324 102.8 28.4801 106.027 32.5027 106.027ZM32.5027 109C38.1714 109 42.7667 104.449 42.7667 98.8343C42.7667 93.2199 38.1714 88.6685 32.5027 88.6685C27.5435 88.6685 23.4058 92.1519 22.4477 96.7831C22.3107 97.4456 22.2387 98.1316 22.2387 98.8343C22.2387 99.1449 22.2528 99.4523 22.2803 99.7558C22.7505 104.938 27.1477 109 32.5027 109Z" fill="url(#paint2_linear)"/>
<path d="M115.755 98.8343C115.755 99.1449 115.741 99.4523 115.714 99.7558H121.244V69.3158C121.244 65.8366 120.4 64.3904 118.784 61.3034L115.34 54.7247C113.701 51.5943 110.443 49.6302 106.89 49.6302C106.442 49.6302 105.995 49.5844 105.556 49.4934L86.6551 43.5934C83.2463 42.8868 80.0451 45.4705 80.0451 48.9284V96.7831H76.4812V47.0246C76.4812 44.5619 74.4707 42.5655 71.9907 42.5655H0V45.5382H71.9907C72.8174 45.5382 73.4875 46.2037 73.4875 47.0246V96.7831H64.2262C64.3632 97.4456 64.4352 98.1316 64.4352 98.8343C64.4352 99.1449 64.4211 99.4523 64.3936 99.7558H95.2689C95.2413 99.4523 95.2273 99.1449 95.2273 98.8343C95.2273 98.1316 95.2992 97.4456 95.4363 96.7831H83.0388V48.9284C83.0388 47.3566 84.4939 46.1822 86.0433 46.5034L104.944 52.4034C105.584 52.5361 106.237 52.603 106.89 52.603C109.326 52.603 111.56 53.9496 112.684 56.0959L116.128 62.6746C117.522 65.338 118.25 66.314 118.25 69.3158V96.7831H115.546C115.683 97.4456 115.755 98.1316 115.755 98.8343Z" fill="url(#paint3_linear)"/>
<path d="M22.2387 98.8343C22.2387 98.1316 22.3107 97.4456 22.4477 96.7831H0V99.7558H22.2803C22.2528 99.4523 22.2387 99.1449 22.2387 98.8343Z" fill="url(#paint4_linear)"/>
<path d="M134.394 48.1126L134.394 48.1126C136.77 47.1603 138.213 45.5633 138.694 43.7154C138.71 43.6553 138.724 43.5947 138.738 43.5339C138.958 42.5341 139.733 41.7212 140.754 41.4792C142.314 41.1097 144.221 40.036 145.804 37.0862C145.88 36.9179 147.059 34.2772 147.406 31.0977C147.825 27.2474 146.833 24.4541 144.803 22.6532C144.158 22.0814 144.101 21.2822 144.227 20.7556C144.711 18.7332 143.878 17.3978 143.06 16.667C142.614 16.2683 142.331 15.7528 142.202 15.2217C141.947 14.1696 140.888 13.2422 139.518 12.609C138.711 12.236 138.151 11.4825 138.017 10.6135L139.5 10.3849L138.017 10.6134C137.792 9.15235 137.169 8.00929 136.168 7.13079C134.268 5.46254 131.408 5.17568 129.836 5.17568C129.269 5.17568 128.765 4.87544 128.484 4.42185C127.98 3.60637 127.141 3.10188 126.077 2.84008C125.002 2.57581 123.821 2.59486 122.89 2.73686C122.509 2.79494 122.103 2.77136 121.708 2.64229C120.616 2.28638 119.709 2.03359 118.397 1.79206C116.533 1.44897 114.184 1.45244 112.157 1.5779C111.156 1.63984 110.26 1.72977 109.576 1.81406C109.234 1.85621 108.95 1.89646 108.735 1.93034C108.628 1.94731 108.542 1.9621 108.478 1.97414C108.42 1.98489 108.392 1.99109 108.386 1.99242C108.385 1.99272 108.385 1.99277 108.385 1.99257M134.394 48.1126L86.6337 14.4255C87.2065 13.262 88.1741 12.326 89.6207 11.6557C90.3017 11.3402 90.795 10.7576 91.0202 10.0812C91.2563 9.37221 91.7007 8.52646 92.5222 7.92436L92.5223 7.92428C93.2536 7.38812 94.1923 7.09015 95.4094 7.11221C96.3486 7.12924 97.1809 6.65043 97.6762 5.94464C98.3095 5.04216 99.8681 3.60736 103.776 3.55105C104.174 3.54531 104.565 3.44699 104.917 3.26658L104.233 1.93177L104.917 3.26657C105.527 2.95412 106.714 2.41802 108.385 1.99257M134.394 48.1126C132.124 49.0221 129.335 49.1854 126.541 48.5041L126.541 48.504M134.394 48.1126L126.541 48.504M108.385 1.99257L108.016 0.538839L108.386 1.99248C108.386 1.99251 108.385 1.99254 108.385 1.99257ZM126.541 48.504C125.152 48.1654 123.437 49.192 123.633 50.9834C123.712 51.7097 123.845 52.4189 124.033 53.1072L118.699 53.967C118.457 53.3375 118.246 52.5069 117.971 51.4025C117.971 51.4024 117.971 51.4023 117.971 51.4022L117.968 51.3923L117.968 51.3922L117.945 51.2999C117.178 48.2193 116.046 43.671 112.485 40.1848C111.932 39.6435 111.188 39.4275 110.492 39.5007C109.098 39.6473 107.922 39.6878 107.05 39.6878C106.521 39.6878 106.103 39.673 105.816 39.658C105.673 39.6505 105.562 39.643 105.487 39.6372C105.449 39.6344 105.42 39.632 105.401 39.6302L105.378 39.6282L105.378 39.6282M126.541 48.504L105.378 39.6282M105.378 39.6282L105.377 39.6281C100.405 38.9151 98.2942 36.366 97.812 33.9859C97.5955 32.9172 96.7188 31.9821 95.5042 31.8555C94.5905 31.7602 93.1742 31.5428 91.7392 31.0597C90.288 30.5711 88.9453 29.8532 88.0442 28.8368C87.2747 27.9683 86.879 26.9697 86.8431 25.8064C86.8215 25.1086 86.5292 24.4863 86.1043 24.0259C85.8665 23.7683 85.657 23.4408 85.5591 23.0306L85.5589 23.03C85.4271 22.4791 85.4995 21.8156 85.9615 20.9839C86.2668 20.4342 86.3803 19.7757 86.237 19.127C85.9812 17.9685 85.8084 16.1027 86.6336 14.4257L105.378 39.6282ZM118.769 54.141L118.769 54.1405L118.769 54.141Z" stroke="white" stroke-width="3" stroke-linecap="round"/>
<defs>
<linearGradient id="paint0_linear" x1="90" y1="66.8863" x2="1.3417" y2="66.8863" gradientUnits="userSpaceOnUse">
<stop stop-color="white"/>
<stop offset="1" stop-color="white" stop-opacity="0"/>
</linearGradient>
<linearGradient id="paint1_linear" x1="90" y1="66.8863" x2="1.3417" y2="66.8863" gradientUnits="userSpaceOnUse">
<stop stop-color="white"/>
<stop offset="1" stop-color="white" stop-opacity="0"/>
</linearGradient>
<linearGradient id="paint2_linear" x1="90" y1="66.8863" x2="1.3417" y2="66.8863" gradientUnits="userSpaceOnUse">
<stop stop-color="white"/>
<stop offset="1" stop-color="white" stop-opacity="0"/>
</linearGradient>
<linearGradient id="paint3_linear" x1="90" y1="66.8863" x2="1.3417" y2="66.8863" gradientUnits="userSpaceOnUse">
<stop stop-color="white"/>
<stop offset="1" stop-color="white" stop-opacity="0"/>
</linearGradient>
<linearGradient id="paint4_linear" x1="90" y1="66.8863" x2="1.3417" y2="66.8863" gradientUnits="userSpaceOnUse">
<stop stop-color="white"/>
<stop offset="1" stop-color="white" stop-opacity="0"/>
</linearGradient>
</defs>
</svg>
