<svg width="161" height="200" viewBox="0 0 161 200" fill="none" xmlns="http://www.w3.org/2000/svg">
<path fill-rule="evenodd" clip-rule="evenodd" d="M53.975 132.139C53.975 146.493 42.34 158.128 27.9875 158.128C27.9875 143.775 39.6226 132.139 53.975 132.139Z" stroke="#B0AEAE" stroke-width="4"/>
<path fill-rule="evenodd" clip-rule="evenodd" d="M53.975 153.075C53.975 167.428 42.34 179.064 27.9875 179.064C27.9875 164.711 39.6226 153.075 53.975 153.075Z" stroke="#B0AEAE" stroke-width="4"/>
<path fill-rule="evenodd" clip-rule="evenodd" d="M53.975 111.203C53.975 125.557 42.34 137.193 27.9875 137.193C27.9875 122.839 39.6226 111.203 53.975 111.203Z" stroke="#B0AEAE" stroke-width="4"/>
<path d="M53.975 90.2674C53.975 104.621 42.34 116.257 27.9875 116.257C27.9875 101.903 39.6226 90.2674 53.975 90.2674ZM53.975 90.2674V80.8823" stroke="#B0AEAE" stroke-width="4" stroke-linecap="round"/>
<path fill-rule="evenodd" clip-rule="evenodd" d="M2.00005 132.139C2.00005 146.493 13.6351 158.128 27.9875 158.128C27.9875 143.775 16.3525 132.139 2.00005 132.139Z" stroke="#B0AEAE" stroke-width="4"/>
<path fill-rule="evenodd" clip-rule="evenodd" d="M2.00005 153.075C2.00005 167.428 13.6351 179.064 27.9875 179.064C27.9875 164.711 16.3525 153.075 2.00005 153.075Z" stroke="#B0AEAE" stroke-width="4"/>
<path fill-rule="evenodd" clip-rule="evenodd" d="M2.00005 111.203C2.00005 125.557 13.6351 137.193 27.9875 137.193C27.9875 122.839 16.3525 111.203 2.00005 111.203Z" stroke="#B0AEAE" stroke-width="4"/>
<path d="M2.00005 90.2674C2.00005 104.621 13.6351 116.257 27.9875 116.257C27.9875 101.903 16.3525 90.2674 2.00005 90.2674ZM2.00005 90.2674V80.8823" stroke="#B0AEAE" stroke-width="4" stroke-linecap="round"/>
<path d="M30.0002 67C30.0002 65.8954 29.1047 65 28.0002 65C26.8956 65 26.0002 65.8954 26.0002 67L30.0002 67ZM30 200L30.0002 67L26.0002 67L26 200H30Z" fill="#B0AEAE"/>
<path fill-rule="evenodd" clip-rule="evenodd" d="M158.975 132.139C158.975 146.493 147.34 158.128 132.988 158.128C132.988 143.775 144.623 132.139 158.975 132.139Z" stroke="#B0AEAE" stroke-width="4"/>
<path fill-rule="evenodd" clip-rule="evenodd" d="M158.975 153.075C158.975 167.428 147.34 179.064 132.988 179.064C132.988 164.711 144.623 153.075 158.975 153.075Z" stroke="#B0AEAE" stroke-width="4"/>
<path fill-rule="evenodd" clip-rule="evenodd" d="M158.975 111.203C158.975 125.557 147.34 137.192 132.988 137.192C132.988 122.839 144.623 111.203 158.975 111.203Z" stroke="#B0AEAE" stroke-width="4"/>
<path d="M158.975 90.2674C158.975 104.621 147.34 116.257 132.988 116.257C132.988 101.903 144.623 90.2674 158.975 90.2674ZM158.975 90.2674V80.8823" stroke="#B0AEAE" stroke-width="4" stroke-linecap="round"/>
<path fill-rule="evenodd" clip-rule="evenodd" d="M107 132.139C107 146.493 118.635 158.128 132.988 158.128C132.988 143.775 121.353 132.139 107 132.139Z" stroke="#B0AEAE" stroke-width="4"/>
<path fill-rule="evenodd" clip-rule="evenodd" d="M107 153.075C107 167.428 118.635 179.064 132.988 179.064C132.988 164.711 121.353 153.075 107 153.075Z" stroke="#B0AEAE" stroke-width="4"/>
<path fill-rule="evenodd" clip-rule="evenodd" d="M107 111.203C107 125.557 118.635 137.192 132.988 137.192C132.988 122.839 121.353 111.203 107 111.203Z" stroke="#B0AEAE" stroke-width="4"/>
<path d="M107 90.2674C107 104.621 118.635 116.257 132.988 116.257C132.988 101.903 121.353 90.2674 107 90.2674ZM107 90.2674V80.8823" stroke="#B0AEAE" stroke-width="4" stroke-linecap="round"/>
<path d="M134.512 67C134.512 65.8954 133.617 65 132.512 65C131.408 65 130.512 65.8954 130.512 67L134.512 67ZM134.512 200L134.512 67L130.512 67L130.512 200H134.512Z" fill="#B0AEAE"/>
<path fill-rule="evenodd" clip-rule="evenodd" d="M118.792 99.4653C118.792 120.73 101.555 137.968 80.2925 137.968C80.2925 116.703 97.5296 99.4653 118.792 99.4653Z" fill="white" stroke="#221E1F" stroke-width="4"/>
<path fill-rule="evenodd" clip-rule="evenodd" d="M118.792 130.481C118.792 151.746 101.555 168.984 80.2925 168.984C80.2925 147.72 97.5296 130.481 118.792 130.481Z" fill="white" stroke="#221E1F" stroke-width="4"/>
<path fill-rule="evenodd" clip-rule="evenodd" d="M118.792 68.4492C118.792 89.7137 101.555 106.952 80.2925 106.952C80.2925 85.6874 97.5296 68.4492 118.792 68.4492Z" fill="white" stroke="#221E1F" stroke-width="4"/>
<path fill-rule="evenodd" clip-rule="evenodd" d="M118.792 37.433C118.792 58.6976 101.555 75.9357 80.2925 75.9357C80.2925 54.6712 97.5296 37.433 118.792 37.433Z" fill="white"/>
<path d="M118.792 37.433C118.792 58.6976 101.555 75.9357 80.2925 75.9357C80.2925 54.6712 97.5296 37.433 118.792 37.433ZM118.792 37.433V23.5293" stroke="#221E1F" stroke-width="4" stroke-linecap="round"/>
<path fill-rule="evenodd" clip-rule="evenodd" d="M41.7925 99.4653C41.7925 120.73 59.0296 137.968 80.2925 137.968C80.2925 116.703 63.0554 99.4653 41.7925 99.4653Z" fill="white" stroke="#221E1F" stroke-width="4"/>
<path fill-rule="evenodd" clip-rule="evenodd" d="M41.7925 130.481C41.7925 151.746 59.0296 168.984 80.2925 168.984C80.2925 147.72 63.0554 130.481 41.7925 130.481Z" fill="white" stroke="#221E1F" stroke-width="4"/>
<path fill-rule="evenodd" clip-rule="evenodd" d="M41.7925 68.4492C41.7925 89.7137 59.0296 106.952 80.2925 106.952C80.2925 85.6874 63.0554 68.4492 41.7925 68.4492Z" fill="white" stroke="#221E1F" stroke-width="4"/>
<path fill-rule="evenodd" clip-rule="evenodd" d="M41.7925 37.433C41.7925 58.6976 59.0296 75.9357 80.2925 75.9357C80.2925 54.6712 63.0554 37.433 41.7925 37.433Z" fill="white"/>
<path d="M41.7925 37.433C41.7925 58.6976 59.0296 75.9357 80.2925 75.9357C80.2925 54.6712 63.0554 37.433 41.7925 37.433ZM41.7925 37.433V23.5293" stroke="#221E1F" stroke-width="4" stroke-linecap="round"/>
<path d="M82.2927 2C82.2927 0.895433 81.3973 1.3113e-06 80.2927 0C79.1882 -1.43051e-06 78.2927 0.895428 78.2927 2L82.2927 2ZM82.2925 200L82.2927 2L78.2927 2L78.2925 200H82.2925Z" fill="#221E1F"/>
</svg>
